<?xml version="1.0" encoding="utf-8"?>
<!-- Generator: Adobe Illustrator 23.0.2, SVG Export Plug-In . SVG Version: 6.00 Build 0)  -->
<svg version="1.1" xmlns="http://www.w3.org/2000/svg" xmlns:xlink="http://www.w3.org/1999/xlink" x="0px" y="0px"
	 viewBox="0 0 693.1 383" style="enable-background:new 0 0 693.1 383;" xml:space="preserve">
<style type="text/css">
	.st0{fill:none;stroke:#666565;stroke-width:3;stroke-miterlimit:10;}
</style>
<g id="Layer_1" xmlns:sketch="http://www.bohemiancoding.com/sketch/ns">
	<title>IPAD 2</title>
	<desc>Created with Sketch.</desc>
	<g id="Page-1" sketch:type="MSPage">
		<g id="Laptop" transform="translate(1.000000, 1.000000)" sketch:type="MSLayerGroup">
			<path sketch:type="MSShapeGroup" class="st0" d="M593.5,2.1h-496c-13.5,0-25,11.1-25,24.8v326.2h546V26.9
				C618.5,13.2,607,2.1,593.5,2.1z"/>
			<circle id="webcam" sketch:type="MSShapeGroup" class="st0" cx="346.5" cy="21.1" r="4">
			</circle>
			<g id="bottom" transform="translate(0.000000, 351.000000)" sketch:type="MSShapeGroup">
				<path id="Shape" class="st0" d="M640.3,33.1H50.8c-30.6,0-51.3-10.5-51.3-15V4.6c0-1.3,1.3-2.4,3-2.4h686.1c1.7,0,3,1.1,3,2.4
					v14.1C691.6,22.2,675.6,33.1,640.3,33.1z"/>
				<path id="Line" class="st0" d="M0,16.6h689.7"/>
			</g>
			<g id="siteimage">
				<defs>
					<rect id="SVGID_1_" x="94.5" y="41.1" sketch:type="MSShapeGroup" width="501.1" height="292">
					</rect>
				</defs>
				<clipPath id="SVGID_2_">
					<use xlink:href="#SVGID_1_"  style="overflow:visible;"/>
				</clipPath>
				<g style="clip-path:url(#SVGID_2_);">
					
						<image style="overflow:visible;" width="1299" height="933" id="frootloops" xlink:href="images/frootloops.png"  transform="matrix(0.3861 0 0 0.3513 95.9665 35.0599)">
					</image>
				</g>
				<use xlink:href="#SVGID_1_"  style="overflow:visible;fill:none;stroke:#666565;stroke-miterlimit:10;"/>
			</g>
			<path id="touchpad" sketch:type="MSShapeGroup" class="st0" d="M420.5,354.1v3.1c0,2.2-4.3,2.9-7.6,2.9H278.3
				c-3.5,0-7.8-0.7-7.8-2.9v-3.1"/>
		</g>
	</g>
</g>
<g id="webpage">
</g>
</svg>
