<svg id="Layer_1" data-name="Layer 1" xmlns="http://www.w3.org/2000/svg" viewBox="0 0 100.03 36.88">
  <title>logo</title>
  <g>
    <g>
      <path d="M10.38,21.62a7.55,7.55,0,0,1-8-7.78c0-3.75,2.56-7.79,8.19-7.79,4.95,0,8,2.85,8,7.43a8.22,8.22,0,0,1-2.21,5.78A8.17,8.17,0,0,1,10.38,21.62ZM10,7.11c-1.79,0-4.79.79-4.79,6.12,0,4.29,2.46,7.3,6,7.3,1.36,0,4.52-.62,4.52-6.32C15.72,10,13.37,7.11,10,7.11Z" transform="translate(-2.38 -6.05)" fill="#fff"/>
      <path d="M33.46,21.35H31.81A3.78,3.78,0,0,1,29.89,21a7.8,7.8,0,0,1-2.38-2.48c-.39-.5-.78-1.07-1.1-1.53s-.45-.64-.54-.75a.34.34,0,0,0-.27-.1L24,16.1c-.06,0-.08,0-.08.08v.24c0,1.33,0,2.79.09,3.56.06.48.13.77.63.84a6,6,0,0,0,.84.06.26.26,0,0,1,.27.23c0,.07,0,.24-.41.24-.67,0-1.53,0-2.1-.05l-.6,0-.72,0c-.44,0-1,0-1.41,0s-.39-.15-.39-.24.09-.23.33-.23a2.41,2.41,0,0,0,.6-.06c.32-.07.41-.35.47-.84.08-.71.08-2,.08-3.56v-3c0-2.55,0-3,0-3.54s-.17-.71-.71-.86A3.17,3.17,0,0,0,20.23,9c-.22,0-.35-.09-.35-.23s.31-.22.44-.22c.57,0,1.19,0,1.69,0l.69,0,1.48,0,1.22,0a6.12,6.12,0,0,1,3.32.73A2.94,2.94,0,0,1,30,11.63c0,1.25-.71,2.37-2.38,3.71l.2.25c1.44,1.77,2.57,3.17,3.56,4.16a3.19,3.19,0,0,0,1.78,1.08h0a1.5,1.5,0,0,0,.4,0,.26.26,0,0,1,.28.23C33.86,21.35,33.58,21.35,33.46,21.35ZM25.08,9.53a5.64,5.64,0,0,0-1,.06c-.08,0-.11.06-.11.19v5c0,.16,0,.2.12.25a4.94,4.94,0,0,0,1.3.15,1.72,1.72,0,0,0,1.19-.26,2.81,2.81,0,0,0,1.1-2.44A2.59,2.59,0,0,0,25.08,9.53Z" transform="translate(-2.38 -6.05)" fill="#fff"/>
      <path d="M41.68,21.38c-1.27,0-2.26,0-3.11-.06h-.64l-1.67,0h-1l-.25,0-1,0c-.34,0-.4-.15-.4-.24s.09-.23.34-.23a2.32,2.32,0,0,0,.59-.06c.32-.07.42-.35.48-.84.07-.71.07-2,.07-3.56v-3c0-2.55,0-3,0-3.54s-.16-.71-.7-.86A2.07,2.07,0,0,0,33.88,9c-.29,0-.35-.13-.35-.23s.28-.22.41-.22l1.51,0,.89,0,1,0,1.49,0c.14,0,.43,0,.43.22s-.13.23-.37.23a3.17,3.17,0,0,0-.66.06c-.43.07-.57.26-.61.86s0,1,0,3.54v3c0,2.12,0,3.19.35,3.49s.94.34,2.28.34c1,0,1.58,0,2-.46a2,2,0,0,0,.42-1c0-.09,0-.31.25-.31s.21.08.21.43a13,13,0,0,1-.26,1.95C42.71,21.3,42.61,21.38,41.68,21.38Z" transform="translate(-2.38 -6.05)" fill="#fff"/>
      <path d="M70.57,21.54a1.05,1.05,0,0,1-.75-.37c-1-.94-3.15-3-5.07-4.83-1.22-1.17-2.42-2.43-3.2-3.26l-.82-.85L60.92,19c0,1.39.29,1.67.55,1.77a3,3,0,0,0,.89.11c.26,0,.35.12.35.23s-.32.24-.45.24c-.73,0-1.34,0-1.75-.05l-.49,0-.3,0c-.35,0-.95.05-1.57.05-.19,0-.46,0-.46-.24s.15-.23.33-.23a3.53,3.53,0,0,0,.78-.08c.41-.1.47-.52.49-2l.16-9.94c0-.37.14-.62.35-.62s.44.22.72.5l.07.07.23.24c.73.74,3,3,5.11,5.1.68.67,1.72,1.73,2.56,2.57.57.59,1,1.05,1.17,1.18h0l-.18-7.4c0-1-.18-1.28-.55-1.42A2.77,2.77,0,0,0,68,9c-.27,0-.33-.13-.33-.23s.29-.22.47-.22h0c.55,0,1.11,0,1.55,0l.66,0,.33,0c.31,0,.79,0,1.36,0,.18,0,.45,0,.45.22S72.46,9,72.2,9a1.66,1.66,0,0,0-.52.06c-.44.13-.57.42-.59,1.33L70.9,21C70.9,21.39,70.72,21.54,70.57,21.54Z" transform="translate(-2.38 -6.05)" fill="#fff"/>
      <path d="M79,21.48c-.47,0-1,0-1.54-.06l-.53,0c-.74-.06-1.34-.1-1.76-.1h-1l-.24,0-1,0c-.34,0-.39-.15-.39-.24s.08-.23.33-.23a2.41,2.41,0,0,0,.6-.06c.32-.07.41-.35.47-.84.07-.71.07-2,.07-3.56v-3c0-2.55,0-3,0-3.54s-.17-.71-.71-.86A3.17,3.17,0,0,0,72.64,9c-.22,0-.35-.09-.35-.23s.31-.22.44-.22l1.62,0,.89,0,1,0,1.82,0c2.16,0,5.11,0,7,1.93a5.88,5.88,0,0,1,1.66,4.31,6.6,6.6,0,0,1-1.91,4.7C84.23,20.09,82.46,21.48,79,21.48Zm-1.24-12a3.84,3.84,0,0,0-1,.11.26.26,0,0,0-.19.29c0,.57,0,2,0,3.28v2.1c0,1.72,0,3,0,3.39a3.48,3.48,0,0,0,.19,1.16c.21.31.91.65,2.22.65a5.32,5.32,0,0,0,3.75-1.14c1-.81,1.46-2.15,1.46-4.11a5.35,5.35,0,0,0-1.6-4.14A7,7,0,0,0,77.73,9.53Z" transform="translate(-2.38 -6.05)" fill="#fff"/>
      <path d="M95.08,21.56c-4.92,0-7.16-3.43-7.16-6.62s2.3-6.62,7.33-6.62c4.41,0,7.16,2.42,7.16,6.32C102.41,18.71,99.39,21.56,95.08,21.56ZM94.74,9.32c-1.55,0-4.14.66-4.14,5.11,0,3.6,2.13,6.12,5.19,6.12,1.18,0,3.92-.52,3.92-5.29C99.71,11.76,97.67,9.32,94.74,9.32Z" transform="translate(-2.38 -6.05)" fill="#fff"/>
      <path d="M57.19,21.35c-.61,0-1.88,0-3.34,0h-.08c-.29,0-.48,0-.48-.19s.08-.21.26-.23a.19.19,0,0,0,.11-.09.26.26,0,0,0,0-.21l-1.34-3.37c0-.08-.06-.09-.12-.09H49.8a.19.19,0,0,1-.15-.06.2.2,0,0,1,0-.17l.19-.6a.3.3,0,0,1,.28-.2h1.75v0L50.2,11.78a.24.24,0,0,0,0-.08l0,.08v0L48,17.22l-.93,2.24a3.15,3.15,0,0,0-.25,1c0,.22.08.42.63.42h.26c.21,0,.31.07.31.23s-.23.23-.33.23l-1,0-.95,0-.35,0c-.39,0-1,0-1.66,0-.13,0-.37,0-.37-.23a.23.23,0,0,1,.25-.23h.51c.72-.11,1-.54,1.39-1.45L50.08,8.87c.18-.44.33-.7.56-.7s.38.19.56.56,1,2.28,1.88,4.38,2,4.65,2.54,6,1.1,1.7,1.44,1.76a4.46,4.46,0,0,0,.64.06c.25,0,.29.15.29.23S57.82,21.35,57.19,21.35Z" transform="translate(-2.38 -6.05)" fill="#fff"/>
    </g>
    <g>
      <path d="M94.35,29a1.82,1.82,0,1,1-1.81,1.82A1.79,1.79,0,0,1,94.35,29Zm0,.28a1.54,1.54,0,0,0,0,3.08,1.48,1.48,0,0,0,1.46-1.53,1.5,1.5,0,0,0-1.46-1.55ZM94,31.91h-.32v-2a4.18,4.18,0,0,1,.58-.05,1.1,1.1,0,0,1,.63.15.54.54,0,0,1-.21.92h0c.17,0,.29.2.33.5a1.79,1.79,0,0,0,.13.5h-.33a1.47,1.47,0,0,1-.14-.52.38.38,0,0,0-.44-.35H94Zm0-1.12h.24c.27,0,.49-.1.49-.35s-.13-.36-.49-.36l-.24,0Z" transform="translate(-2.38 -6.05)" fill="#fff"/>
      <path d="M19.08,42.89c-.77,0-1.53,0-2.14,0l-.93,0-.93,0c-.52,0-1.11,0-1.56,0-.3,0-.45-.09-.45-.26s.27-.21.37-.21a2.79,2.79,0,0,0,.7-.08c.34-.06.44-.4.53-1,.1-.82.1-2.39.1-4.19V33.64c0-3,0-3.54,0-4.18s-.17-.93-.81-1.07a4.06,4.06,0,0,0-.75-.06c-.13,0-.39,0-.39-.23s.3-.23.47-.23c.62,0,1.32,0,1.88,0l1,0,1,0,1.52,0c.23,0,.47,0,.47.23s-.27.23-.41.23a3.25,3.25,0,0,0-.56.06c-.47.09-.65.36-.69,1.07s0,1.18,0,4.18v3.48c0,1.8,0,3.37.1,4.21.07.6.2.94.73,1a7.93,7.93,0,0,0,1,.08c.31,0,.37.12.37.21S19.47,42.89,19.08,42.89Z" transform="translate(-2.38 -6.05)" fill="#fff"/>
      <path d="M29.32,42.89c-.78,0-1.54,0-2.14,0l-.94,0-.93,0c-.52,0-1.1,0-1.54,0-.11,0-.46,0-.46-.26s.27-.21.37-.21a3,3,0,0,0,.7-.08c.36-.07.45-.49.52-1,.1-.82.1-2.39.1-4.19V35.38a.07.07,0,0,0-.06-.07h-5a.22.22,0,0,1-.22-.22v-.72a.22.22,0,0,1,.22-.23h5s.06,0,.06-.09v-.41c0-3,0-3.54,0-4.18s-.16-.93-.8-1.07a3.89,3.89,0,0,0-.76-.06c-.12,0-.39,0-.39-.23s.31-.23.47-.23c.62,0,1.32,0,1.88,0l1,0,1,0,1.53,0c.16,0,.46,0,.46.23s-.27.23-.41.23a3.35,3.35,0,0,0-.56.06c-.47.09-.64.36-.68,1.07s0,1.18,0,4.18v3.48c0,1.8,0,3.37.09,4.21.07.6.21.94.73,1a8.1,8.1,0,0,0,1,.08c.3,0,.37.12.37.21S29.71,42.89,29.32,42.89Z" transform="translate(-2.38 -6.05)" fill="#fff"/>
      <path d="M38.63,42.93c-1.36,0-2.38,0-3.2-.06l-.7,0-1.31,0h-.31l-.68,0h0c-.41,0-.83,0-1.19,0s-.38-.13-.38-.24.08-.23.33-.23a2.32,2.32,0,0,0,.59-.06c.32-.07.42-.34.47-.83.08-.71.08-2,.08-3.57V35c0-2.55,0-3,0-3.54s-.17-.71-.71-.86a3.32,3.32,0,0,0-.67-.06c-.32,0-.35-.16-.35-.23s.3-.21.45-.21l1.61,0,.89,0h4.73a5.43,5.43,0,0,0,.58-.08L39,30l.12,0a.59.59,0,0,1,.17,0c.06,0,.17,0,.17.21a.5.5,0,0,1,0,.16,4.88,4.88,0,0,0-.11.93c0,.06,0,.19,0,.34a7.69,7.69,0,0,1-.08.77v0c0,.1-.08.29-.24.29s-.2-.17-.2-.27a1.58,1.58,0,0,0-.11-.59c-.12-.27-.23-.5-1.1-.58-.29,0-2.36-.08-2.72-.08,0,0-.06,0-.06.11v4.14c0,.12,0,.12.06.12,1.68,0,2.78,0,3,0s.65-.07.79-.23l.11-.12A.31.31,0,0,1,39,35a.21.21,0,0,1,.2.23c0,.07,0,.21-.06.56,0,.17-.05.39-.08.67s-.08,1-.08,1.12c0,.35-.13.43-.23.43a.19.19,0,0,1-.22-.2,1.21,1.21,0,0,0,0-.18,3.29,3.29,0,0,0,0-.42c-.08-.28-.25-.54-.92-.6-.31,0-2.26-.08-2.72-.08,0,0,0,0,0,.12v2c0,.65,0,1.46,0,1.8,0,1.08.49,1.35,2.29,1.35a4.41,4.41,0,0,0,1.62-.22c.4-.18.6-.5.71-1.2,0-.16.08-.3.25-.3s.22.33.22.45a11.38,11.38,0,0,1-.24,1.87C39.48,42.93,39.28,42.93,38.63,42.93Z" transform="translate(-2.38 -6.05)" fill="#fff"/>
      <path d="M62.25,42.93c-1.29,0-2.28,0-3.11-.06l-.57,0-1.74,0h-.32l-.66,0h0c-.4,0-.82,0-1.17,0s-.39-.15-.39-.24,0-.23.33-.23a2.36,2.36,0,0,0,.6-.06c.32-.07.41-.34.47-.83.08-.71.08-2,.08-3.57V35c0-2.55,0-3,0-3.54s-.17-.71-.71-.86a2.63,2.63,0,0,0-.55-.06c-.24,0-.36-.08-.36-.23s.28-.21.43-.21l1.49,0,.9,0,1,0,1.53,0c.15,0,.43,0,.43.21s-.28.23-.38.23a4,4,0,0,0-.66.06c-.43.07-.56.27-.6.86s0,1,0,3.54v3c0,2.12,0,3.19.35,3.49s.94.34,2.27.34c1,0,1.59,0,2-.46a1.83,1.83,0,0,0,.43-1c0-.1,0-.3.24-.3s.22.07.22.43a12.74,12.74,0,0,1-.26,1.94C63.28,42.84,63.17,42.93,62.25,42.93Z" transform="translate(-2.38 -6.05)" fill="#fff"/>
      <path d="M71.54,42.89c-.69,0-1.38,0-1.94,0l-.86,0-.84,0c-.48,0-1,0-1.42,0s-.39-.15-.39-.24.08-.23.33-.23a2.12,2.12,0,0,0,.59-.06c.32-.07.42-.36.48-.83.07-.71.07-2,.07-3.57V31.24L65,31.29c-1,0-1.4.14-1.64.49a2.1,2.1,0,0,0-.28.56c0,.13-.09.25-.25.25s-.21-.25-.21-.33c0-.29.34-1.92.37-2s.09-.36.25-.36a.78.78,0,0,1,.23.06,2.93,2.93,0,0,0,.53.14c.56.06,1.25.08,1.73.08h7A7.71,7.71,0,0,0,74,30.06L74.3,30l.16,0c.19,0,.19.21.19.41s0,.54,0,.93,0,.88,0,1.1,0,.33-.22.33-.23-.17-.25-.38l0-.18c0-.27-.27-.9-2-.92l-2.14,0V38c0,1.85,0,2.95.1,3.58s.17.75.62.82a6.4,6.4,0,0,0,.88.06c.23,0,.33.12.33.23S71.79,42.89,71.54,42.89Z" transform="translate(-2.38 -6.05)" fill="#fff"/>
      <path d="M90.79,42.89c-.69,0-1.37,0-1.92,0-.35,0-.64,0-.82,0l-.87,0c-.49,0-1,0-1.42,0s-.43-.15-.43-.24.1-.23.33-.23a2.39,2.39,0,0,0,.61-.06c.33-.07.42-.34.48-.83.08-.71.08-2,.08-3.53V36.71s0,0,0,0H82.5a.23.23,0,0,1-.23-.23v-.66a.23.23,0,0,1,.23-.23h4.29s0,0,0-.06v-.36c0-2.5,0-3.13,0-3.65v0c0-.54-.17-.71-.71-.86a3,3,0,0,0-.66-.06c-.29,0-.35-.12-.35-.23s.28-.21.44-.21l1.72,0,.88,0,.86,0,1.36,0c.15,0,.44,0,.44.21s0,.23-.38.23a3.22,3.22,0,0,0-.5.06c-.41.07-.54.27-.58.86s0,1,0,3.54v3c0,1.53,0,2.86.09,3.58.06.51.17.75.64.82a6.09,6.09,0,0,0,.88.06c.2,0,.33.12.33.23S91.16,42.89,90.79,42.89Z" transform="translate(-2.38 -6.05)" fill="#fff"/>
      <path d="M81.7,42.89c-.68,0-1.38,0-2,0l-.87,0-.83,0c-.47,0-1,0-1.4,0s-.39-.15-.39-.24.09-.23.33-.23a2.36,2.36,0,0,0,.6-.06c.32-.07.41-.34.47-.83.08-.71.08-2,.08-3.57V35c0-2.55,0-3,0-3.54s-.17-.71-.71-.86a3.4,3.4,0,0,0-.67-.06c-.32,0-.36-.16-.36-.23s.31-.21.43-.21l1.67,0,.88,0,.88,0,1.42,0c.14,0,.42,0,.42.21s-.13.23-.38.23a2.49,2.49,0,0,0-.48.06c-.43.07-.57.27-.61.86s0,1.13,0,3.68V38c0,1.81,0,2.9.1,3.54s.17.75.63.82a6.19,6.19,0,0,0,.88.06c.22,0,.33.12.33.23S82.07,42.89,81.7,42.89Z" transform="translate(-2.38 -6.05)" fill="#fff"/>
      <path d="M54,42.89c-.6,0-1.87,0-3.33,0h-.09c-.28,0-.47,0-.47-.19s.08-.21.26-.23a.21.21,0,0,0,.11-.08.23.23,0,0,0,0-.22L49.1,38.75c0-.07-.06-.09-.12-.09H46.57a.17.17,0,0,1-.15-.07.18.18,0,0,1,0-.16l.19-.59a.28.28,0,0,1,.24-.2h1.8v0L47,33.32l0-.08a.19.19,0,0,0,0,.08v0l-2.13,5.4L43.86,41a3.11,3.11,0,0,0-.25,1c0,.22.08.42.64.42h.25c.21,0,.31.07.31.23s-.23.24-.33.24l-1,0-1,0H42.2c-.39,0-1,0-1.66,0-.13,0-.37,0-.37-.24a.23.23,0,0,1,.25-.23h.51c.78-.11,1.06-.65,1.39-1.44l4.54-10.55c.18-.45.33-.71.56-.71s.39.19.56.57.91,2.1,1.73,4c1,2.31,2.09,4.92,2.69,6.29s1.1,1.7,1.44,1.76a4.11,4.11,0,0,0,.64.06c.25,0,.29.15.29.23S54.6,42.89,54,42.89Z" transform="translate(-2.38 -6.05)" fill="#fff"/>
    </g>
  </g>
</svg>
