<svg id="Layer_1" data-name="Layer 1" xmlns="http://www.w3.org/2000/svg" viewBox="0 0 183.44 123.6">
  <title>logo</title>
  <g>
    <g>
      <g>
        <path d="M25.42,80.24a7.81,7.81,0,0,0-5.57-2.42,7.56,7.56,0,0,0,0,15.12,8,8,0,0,0,5.52-2.43V93A9.39,9.39,0,0,1,20,94.83a9.45,9.45,0,1,1,0-18.9,8.81,8.81,0,0,1,5.45,1.79Z" fill="#fff"/>
        <path d="M38.77,94.51H36.83V92.94h0a4.77,4.77,0,0,1-3.92,1.89c-3.35,0-5.46-2.84-5.46-6s2.06-6,5.48-6a4.92,4.92,0,0,1,3.9,1.94h0V83.12h1.94ZM29.39,88.7c0,2.23,1.31,4.33,3.73,4.33s3.81-2,3.81-4.31A3.81,3.81,0,0,0,33.1,84.6,3.86,3.86,0,0,0,29.39,88.7Z" fill="#fff"/>
        <path d="M46.47,85.77a1.83,1.83,0,0,0-1.55-1.17,1.39,1.39,0,0,0-1.41,1.26c0,1,1.31,1.43,2.65,2s2.64,1.36,2.64,3.27a3.73,3.73,0,0,1-3.86,3.71,4.1,4.1,0,0,1-4-2.89l1.72-.72c.49,1.06,1,1.81,2.33,1.81a1.73,1.73,0,0,0,1.84-1.74c0-2.54-5.14-1.67-5.14-5.26a3.25,3.25,0,0,1,3.4-3.22,3.42,3.42,0,0,1,3,2.11Z" fill="#fff"/>
        <path d="M53.08,94.51H51.15V84.92H50v-1.8h1.19V79h1.93v4.09h2v1.8h-2Z" fill="#fff"/>
        <path d="M66.09,89.33l-2.2,5.18H61.66l8.43-19.14,8.22,19.14H76.05L73.9,89.33Zm4-9.21-3.12,7.32H73.1Z" fill="#fff"/>
        <path d="M88.26,92.94h-.05a4.86,4.86,0,0,1-3.92,1.89c-3.35,0-5.46-2.84-5.46-6s2.06-6,5.48-6a4.92,4.92,0,0,1,3.9,1.94h.05V74.52H90.2v20H88.26ZM80.82,88.7c0,2.23,1.31,4.33,3.73,4.33s3.81-2,3.81-4.31a3.81,3.81,0,0,0-3.83-4.12A3.86,3.86,0,0,0,80.82,88.7Z" fill="#fff"/>
        <path d="M97.08,90.78l3.39-7.66h2.18L97.08,95.26l-5.6-12.14h2.2Z" fill="#fff"/>
        <path d="M114.42,94.51h-1.94V92.94h0a4.8,4.8,0,0,1-3.93,1.89c-3.34,0-5.45-2.84-5.45-6s2.06-6,5.47-6a4.94,4.94,0,0,1,3.91,1.94h0V83.12h1.94Zm-9.37-5.81c0,2.23,1.3,4.33,3.73,4.33s3.8-2,3.8-4.31a3.81,3.81,0,0,0-3.83-4.12A3.86,3.86,0,0,0,105.05,88.7Z" fill="#fff"/>
        <path d="M119.46,84.5h.05a3.81,3.81,0,0,1,3.24-1.69c3.15,0,3.88,2.28,3.88,4.94v6.76h-1.94V88.09c0-1.84-.14-3.49-2.4-3.49-2.66,0-2.83,2.47-2.83,4.51v5.4h-1.94V83.12h1.94Z" fill="#fff"/>
        <path d="M131.86,94.51h-1.94V84.92h-1.18v-1.8h1.18V79h1.94v4.09h2v1.8h-2Z" fill="#fff"/>
        <path d="M145.55,94.51h-1.94V92.94h-.05a4.77,4.77,0,0,1-3.92,1.89c-3.34,0-5.45-2.84-5.45-6s2.06-6,5.47-6a4.92,4.92,0,0,1,3.9,1.94h.05V83.12h1.94Zm-9.38-5.81c0,2.23,1.31,4.33,3.74,4.33s3.8-2,3.8-4.31a3.81,3.81,0,0,0-3.83-4.12A3.86,3.86,0,0,0,136.17,88.7Z" fill="#fff"/>
        <path d="M158.92,94c0,1.82,0,3.4-1.16,4.9a5.5,5.5,0,0,1-4.41,2c-3.17,0-5.53-2-5.6-5.23h1.94a3.39,3.39,0,0,0,3.64,3.44c3,0,3.65-2.21,3.65-4.78V92.94h0A5.08,5.08,0,0,1,153,94.83c-3.32,0-5.43-2.79-5.43-6s2.13-6.06,5.5-6.06a4.74,4.74,0,0,1,3.88,1.94h0V83.12h1.94Zm-9.37-5.25c0,2.23,1.3,4.33,3.73,4.33s3.8-2,3.8-4.31a3.81,3.81,0,0,0-3.83-4.12A3.86,3.86,0,0,0,149.55,88.7Z" fill="#fff"/>
        <path d="M163.18,89.23a3.69,3.69,0,0,0,3.73,3.8,3.9,3.9,0,0,0,3.47-2.35l1.65.95a5.76,5.76,0,0,1-5.26,3.2c-3.39,0-5.57-2.6-5.57-5.87s2-6.15,5.52-6.15,5.6,3,5.4,6.42Zm6.91-1.65a3.48,3.48,0,0,0-3.34-3,3.6,3.6,0,0,0-3.47,3Z" fill="#fff"/>
      </g>
      <g>
        <g>
          <path d="M31.21,22.19c-7.83,0-11.4-5.75-11.4-11.1S23.47,0,31.49,0c7.05,0,11.43,4.06,11.43,10.59a11.68,11.68,0,0,1-3.16,8.23A11.6,11.6,0,0,1,31.21,22.19ZM30.68,1.5c-2.55,0-6.83,1.14-6.83,8.73,0,6.12,3.51,10.4,8.54,10.4,1.94,0,6.44-.88,6.44-9C38.83,5.67,35.48,1.5,30.68,1.5Z" fill="#fff"/>
          <path d="M64.11,21.8H61.75A5.47,5.47,0,0,1,59,21.31c-1-.53-1.93-1.56-3.4-3.54-.55-.72-1.11-1.53-1.56-2.18s-.63-.91-.77-1.08a.5.5,0,0,0-.39-.13l-2.22-.06c-.08,0-.12,0-.12.11v.35c0,1.89,0,4,.14,5.07.08.68.18,1.09.89,1.2a9.94,9.94,0,0,0,1.2.08.36.36,0,0,1,.38.33c0,.1-.05.34-.58.34-1,0-2.18,0-3-.07l-.85,0-1,0c-.63,0-1.43.06-2,.06s-.56-.22-.56-.34.13-.33.47-.33a3.86,3.86,0,0,0,.86-.08c.45-.1.59-.5.67-1.2.11-1,.11-2.89.11-5.07V10.56c0-3.64,0-4.3,0-5.05s-.24-1-1-1.22a4.16,4.16,0,0,0-1-.09c-.32,0-.5-.12-.5-.33s.44-.3.62-.3c.81,0,1.7,0,2.41,0l1,0,2.11,0,1.74,0a8.69,8.69,0,0,1,4.74,1A4.25,4.25,0,0,1,59.13,8c0,1.79-1,3.37-3.39,5.29l.28.35c2.06,2.53,3.68,4.53,5.09,5.94a4.63,4.63,0,0,0,2.53,1.54h.06a2.52,2.52,0,0,0,.58.05.37.37,0,0,1,.39.33C64.67,21.8,64.28,21.8,64.11,21.8ZM52.17,5a7.76,7.76,0,0,0-1.45.09c-.11,0-.16.08-.16.26v7.11c0,.22,0,.28.18.35a6.8,6.8,0,0,0,1.85.21,2.44,2.44,0,0,0,1.7-.37,4,4,0,0,0,1.57-3.48C55.86,6.05,53.87,5,52.17,5Z" fill="#fff"/>
          <path d="M75.83,21.85c-1.82,0-3.23,0-4.44-.09h-.92c-.87,0-1.62,0-2.37,0h-.46l-.94,0h-.36c-.47,0-1,.05-1.36.05s-.55-.22-.55-.34.12-.33.47-.33a3.82,3.82,0,0,0,.85-.08c.46-.1.59-.5.67-1.2.11-1,.11-2.89.11-5.07V10.56c0-3.64,0-4.3,0-5.05s-.24-1-1-1.22a2.79,2.79,0,0,0-.8-.09c-.41,0-.5-.18-.5-.33,0-.3.4-.3.59-.3l2.15,0,1.28,0,1.45,0,2.11,0c.2,0,.62,0,.62.3s-.18.33-.53.33a4.58,4.58,0,0,0-.94.09c-.62.1-.81.37-.87,1.22S70,6.92,70,10.56v4.22c0,3,0,4.54.51,5s1.34.49,3.24.49c1.38,0,2.26-.05,2.84-.65a2.87,2.87,0,0,0,.6-1.39c0-.13,0-.43.35-.43.14,0,.31.1.31.61a18.34,18.34,0,0,1-.37,2.77C77.29,21.74,77.14,21.85,75.83,21.85Z" fill="#fff"/>
          <path d="M117,22.08a1.52,1.52,0,0,1-1.06-.53c-1.45-1.34-4.48-4.24-7.22-6.89C107,13,105.25,11.2,104.13,10c-.56-.59-1-1-1.17-1.21l.28,9.65c.06,2,.41,2.37.79,2.51a4.3,4.3,0,0,0,1.26.16c.37,0,.5.18.5.33,0,.34-.46.34-.64.34-1.05,0-1.92,0-2.49-.07l-.71,0-.42,0c-.51,0-1.35.07-2.24.07-.26,0-.65,0-.65-.34,0-.18.21-.33.47-.33a5,5,0,0,0,1.11-.11c.58-.15.67-.74.7-2.82L101.14,4c0-.53.2-.89.5-.89s.63.31,1,.71l.1.09.33.35c1,1,4.2,4.27,7.28,7.27,1,1,2.45,2.46,3.64,3.66.82.84,1.49,1.51,1.68,1.69h0l-.26-10.55c0-1.49-.26-1.83-.79-2a4,4,0,0,0-1.26-.14c-.39,0-.48-.18-.48-.33,0-.3.42-.3.67-.3h0c.79,0,1.58,0,2.21,0l.94,0,.47,0c.45,0,1.13,0,1.94,0,.26,0,.65,0,.65.3,0,.15-.14.33-.51.33a2.17,2.17,0,0,0-.73.09c-.64.19-.82.59-.84,1.89l-.29,15.06C117.45,21.86,117.2,22.08,117,22.08Z" fill="#fff"/>
          <path d="M129,22c-.68,0-1.45,0-2.2-.09l-.75,0c-1.05-.09-1.92-.14-2.5-.14h-.46l-.94,0h-.35c-.47,0-1,.05-1.37.05s-.56-.22-.56-.34.13-.33.47-.33a3.86,3.86,0,0,0,.86-.08c.46-.1.59-.5.67-1.2.11-1,.11-2.89.11-5.07V10.56c0-3.64,0-4.3,0-5.05s-.25-1-1-1.22a4.32,4.32,0,0,0-1-.09c-.31,0-.5-.12-.5-.33s.44-.3.62-.3c.77,0,1.59,0,2.31,0l1.28,0,1.41,0,2.61,0c3.07,0,7.28,0,10,2.75A8.38,8.38,0,0,1,140,12.45a9.45,9.45,0,0,1-2.72,6.71C136.46,20,133.93,22,129,22ZM127.19,5a5.23,5.23,0,0,0-1.48.16c-.19.07-.27.15-.27.41,0,.82,0,2.77,0,4.67v3c0,2.45,0,4.34,0,4.83a4.87,4.87,0,0,0,.26,1.64c.31.45,1.3.93,3.17.93A7.6,7.6,0,0,0,134.25,19c1.4-1.15,2.08-3.06,2.08-5.86a7.65,7.65,0,0,0-2.28-5.9A10,10,0,0,0,127.19,5Z" fill="#fff"/>
          <path d="M151.91,22.1c-7,0-10.19-4.89-10.19-9.43S145,3.24,152.16,3.24c6.29,0,10.2,3.45,10.2,9C162.36,18.05,158.06,22.1,151.91,22.1Zm-.48-17.45c-2.2,0-5.9.95-5.9,7.29,0,5.13,3,8.72,7.39,8.72,1.69,0,5.6-.74,5.6-7.54C158.52,8.13,155.6,4.65,151.43,4.65Z" fill="#fff"/>
          <path d="M97.92,21.81c-.87,0-2.67,0-4.75-.06h-.12c-.42,0-.69-.05-.69-.28s.12-.3.38-.33a.2.2,0,0,0,.15-.12.35.35,0,0,0,0-.3L91,15.91a.16.16,0,0,0-.18-.12H87.39a.25.25,0,0,1-.21-.09.29.29,0,0,1,0-.24l.28-.86a.44.44,0,0,1,.4-.29h2.5a.1.1,0,0,0,0,0L88,8.17a.24.24,0,0,0,0-.12.49.49,0,0,0,0,.11l0,.05-3,7.7-1.32,3.2a4.4,4.4,0,0,0-.36,1.44c0,.31.11.59.9.59h.36c.31,0,.46.11.46.33s-.34.34-.48.34c-.41,0-.91,0-1.4,0s-1,0-1.36,0l-.49,0c-.55,0-1.47.07-2.37.07-.18,0-.53,0-.53-.34a.33.33,0,0,1,.36-.33H79l.37,0c1-.15,1.43-.76,2-2.06L87.78,4c.27-.63.49-1,.81-1s.55.27.8.8,1.39,3.24,2.67,6.24,2.82,6.63,3.63,8.49c.9,2.06,1.57,2.42,2,2.51a6,6,0,0,0,.92.08c.36,0,.41.21.41.33C99.06,21.76,98.82,21.81,97.92,21.81Z" fill="#fff"/>
        </g>
        <g>
          <path d="M150.88,32.75a2.6,2.6,0,1,1-2.58,2.59,2.55,2.55,0,0,1,2.58-2.59Zm0,.4a2.2,2.2,0,1,0,2.08,2.2,2.13,2.13,0,0,0-2.08-2.2Zm-.49,3.7h-.46V34a4.55,4.55,0,0,1,.82-.07,1.51,1.51,0,0,1,.9.22.68.68,0,0,1,.26.59.72.72,0,0,1-.56.71v0c.26,0,.42.28.48.7a2.76,2.76,0,0,0,.18.72h-.47a2,2,0,0,1-.2-.74.54.54,0,0,0-.62-.51h-.33Zm0-1.6h.34c.38,0,.7-.14.7-.5s-.19-.51-.7-.51a2.51,2.51,0,0,0-.34,0Z" fill="#fff"/>
          <path d="M43.62,52.49c-1.1,0-2.18,0-3-.05l-1.33,0-1.32,0c-.74,0-1.58.05-2.23.05q-.63,0-.63-.36c0-.3.38-.3.52-.3a4.94,4.94,0,0,0,1-.11c.49-.1.64-.57.76-1.48.14-1.17.14-3.4.14-6v-5c0-4.29,0-5.06,0-6s-.24-1.33-1.15-1.52a5.66,5.66,0,0,0-1.08-.09c-.18,0-.56,0-.56-.33s.44-.33.67-.33c.89,0,1.88,0,2.68.06l1.37,0,1.37,0c.73,0,1.55-.05,2.17-.05.32,0,.67,0,.67.33s-.39.33-.59.33a4.52,4.52,0,0,0-.8.09c-.67.12-.92.51-1,1.52s-.06,1.67-.06,6v5c0,2.57,0,4.8.14,6,.09.86.29,1.35,1,1.45a13,13,0,0,0,1.42.11c.44,0,.53.16.53.3S44.18,52.49,43.62,52.49Z" fill="#fff"/>
          <path d="M58.2,52.49c-1.11,0-2.18,0-3.05-.05l-1.33,0-1.33,0c-.73,0-1.56.05-2.18.05-.17,0-.67,0-.67-.36s.38-.3.52-.3a4.71,4.71,0,0,0,1-.11c.52-.11.65-.71.75-1.48.15-1.17.15-3.4.15-6V41.79a.09.09,0,0,0-.1-.09H44.8a.32.32,0,0,1-.32-.32v-1A.32.32,0,0,1,44.8,40H52c.06,0,.1,0,.1-.12v-.59c0-4.29,0-5.06-.06-6s-.23-1.33-1.15-1.52a5.31,5.31,0,0,0-1.08-.09c-.18,0-.55,0-.55-.33s.43-.33.67-.33c.89,0,1.88,0,2.67.06l1.37,0,1.37,0c.73,0,1.56-.05,2.17-.05.24,0,.67,0,.67.33s-.39.33-.58.33a4.33,4.33,0,0,0-.8.09c-.67.12-.92.5-1,1.52s-.06,1.67-.06,6v5c0,2.57,0,4.8.14,6,.1.86.29,1.35,1,1.45a13.35,13.35,0,0,0,1.43.11c.43,0,.52.16.52.3S58.76,52.49,58.2,52.49Z" fill="#fff"/>
          <path d="M71.47,52.55c-1.94,0-3.39,0-4.55-.09l-1,0c-.72,0-1.34,0-1.86,0l-.45,0-1,0h0c-.58,0-1.18.05-1.69.05s-.55-.18-.55-.33.12-.33.47-.33a3.69,3.69,0,0,0,.85-.08c.46-.11.59-.5.67-1.2.12-1,.12-2.89.12-5.08V41.26c0-3.65,0-4.3,0-5.06s-.25-1-1-1.22a4.43,4.43,0,0,0-1-.08c-.46,0-.51-.23-.51-.33,0-.3.44-.3.64-.3.75,0,1.58,0,2.3,0l1.28,0h6.73c.33,0,.62-.07.83-.1l.2,0,.17-.06a.77.77,0,0,1,.24-.06c.09,0,.25,0,.25.3a.74.74,0,0,1,0,.23,7.31,7.31,0,0,0-.16,1.32c0,.09,0,.28,0,.49,0,.4-.07.91-.1,1.1v0c0,.13-.11.42-.35.42s-.27-.25-.27-.39a2.17,2.17,0,0,0-.16-.84c-.18-.38-.34-.71-1.57-.83-.42-.06-3.36-.11-3.87-.11Q66,35.8,66,36v5.9c0,.17,0,.17.09.17,2.39,0,4,0,4.32-.05.56-.06.93-.11,1.13-.34a1.2,1.2,0,0,0,.16-.16c.1-.1.18-.18.29-.18a.31.31,0,0,1,.28.33c0,.1,0,.31-.08.8,0,.24-.07.55-.12,1s-.11,1.43-.11,1.59c0,.5-.18.61-.34.61s-.3-.17-.3-.28,0-.16,0-.25a4.49,4.49,0,0,0-.06-.61c-.12-.39-.36-.77-1.31-.85-.44-.06-3.22-.12-3.87-.12,0,0-.06,0-.06.18v2.88c0,.92,0,2.07,0,2.57C66,50.63,66.65,51,69.22,51a6.62,6.62,0,0,0,2.31-.3c.57-.26.85-.73,1-1.71,0-.24.11-.43.35-.43s.31.47.31.64a16.53,16.53,0,0,1-.34,2.66C72.69,52.55,72.4,52.55,71.47,52.55Z" fill="#fff"/>
          <path d="M105.14,52.55c-1.84,0-3.25,0-4.44-.09l-.81,0c-.91,0-1.69,0-2.48,0l-.45,0-.95,0H96c-.58,0-1.17.05-1.67.05s-.55-.2-.55-.33,0-.33.47-.33a3.76,3.76,0,0,0,.85-.08c.45-.11.59-.5.67-1.2.12-1,.12-2.89.12-5.08V41.26c0-3.65,0-4.3,0-5.06s-.24-1-1-1.22A3.31,3.31,0,0,0,94,34.9c-.33,0-.5-.11-.5-.33s.4-.3.61-.3c.65,0,1.44,0,2.13,0l1.28,0,1.39,0,2.17,0c.22,0,.62,0,.62.3s-.4.33-.53.33a6.64,6.64,0,0,0-1,.08c-.61.11-.8.38-.86,1.22s-.05,1.41-.05,5.06v4.21c0,3,0,4.55.5,5s1.34.49,3.24.49c1.38,0,2.26,0,2.84-.65a2.82,2.82,0,0,0,.6-1.39c0-.14,0-.43.35-.43.14,0,.3.11.3.61a19.12,19.12,0,0,1-.36,2.77C106.6,52.43,106.45,52.55,105.14,52.55Z" fill="#fff"/>
          <path d="M118.38,52.49c-1,0-2,0-2.77-.05l-1.23,0-1.2,0c-.68,0-1.46.05-2,.05s-.56-.2-.56-.33.12-.33.48-.33a3.42,3.42,0,0,0,.84-.08c.46-.11.59-.52.67-1.2.12-1,.12-2.89.12-5.08V35.89L109.1,36c-1.42,0-2,.2-2.32.7a2.83,2.83,0,0,0-.41.79c-.05.19-.13.36-.35.36s-.31-.35-.31-.47c0-.41.49-2.74.54-2.91s.12-.51.35-.51a1.21,1.21,0,0,1,.33.08,3,3,0,0,0,.75.2,23.89,23.89,0,0,0,2.46.11h10a11.32,11.32,0,0,0,1.68-.11l.46-.08.22,0c.28,0,.28.29.28.58s0,.77,0,1.33,0,1.25,0,1.57c0,.15,0,.47-.3.47s-.34-.25-.36-.55l0-.25c0-.39-.38-1.28-2.84-1.31l-3,0v9.58c0,2.63,0,4.21.14,5.1.09.72.25,1.07.88,1.18a10.26,10.26,0,0,0,1.26.08c.33,0,.47.17.47.33S118.72,52.49,118.38,52.49Z" fill="#fff"/>
          <path d="M145.8,52.49c-1,0-2,0-2.73-.05l-1.18,0-1.24,0c-.69,0-1.48.05-2,.05s-.61-.2-.61-.33.15-.33.47-.33a3.93,3.93,0,0,0,.88-.08c.46-.11.59-.5.68-1.2.11-1,.11-2.87.11-5V43.7s0-.06-.06-.06H134a.32.32,0,0,1-.32-.32v-1a.33.33,0,0,1,.32-.32h6.11s.06,0,.06-.09v-.5c0-3.56,0-4.47-.06-5.21v0c0-.77-.24-1-1-1.22a4.73,4.73,0,0,0-.93-.08c-.42,0-.51-.18-.51-.33s.4-.3.62-.3l2.46,0,1.25,0,1.24,0,1.93,0c.22,0,.62,0,.62.3,0,.12-.07.33-.53.33a4,4,0,0,0-.72.08c-.59.11-.78.38-.83,1.22s-.06,1.42-.06,5.06v4.21c0,2.19,0,4.07.11,5.1.09.73.25,1.07.92,1.18a9.85,9.85,0,0,0,1.25.08c.3,0,.47.17.47.33S146.33,52.49,145.8,52.49Z" fill="#fff"/>
          <path d="M132.85,52.49c-1,0-2,0-2.77-.05l-1.25,0-1.18,0c-.67,0-1.44.05-2,.05s-.55-.2-.55-.33.12-.33.46-.33a3.79,3.79,0,0,0,.86-.08c.46-.11.59-.5.67-1.2.12-1,.12-2.89.12-5.08V41.26c0-3.65,0-4.3,0-5.06s-.25-1-1-1.22a4.43,4.43,0,0,0-1-.08c-.46,0-.51-.23-.51-.33,0-.3.44-.3.62-.3l2.37,0,1.25,0,1.26,0,2,0c.2,0,.59,0,.59.3s-.17.33-.53.33a4.19,4.19,0,0,0-.68.08c-.62.11-.81.38-.87,1.22s-.06,1.62-.06,5.26v4.07c0,2.57.05,4.13.15,5,.09.71.24,1.06.89,1.17a10,10,0,0,0,1.25.08c.32,0,.47.17.47.33S133.37,52.49,132.85,52.49Z" fill="#fff"/>
          <path d="M93.33,52.49c-.87,0-2.67,0-4.75-.05h-.13c-.41,0-.68,0-.68-.27s.11-.3.38-.33a.24.24,0,0,0,.15-.12.34.34,0,0,0,0-.31L86.4,46.59a.16.16,0,0,0-.18-.12H82.79a.26.26,0,0,1-.22-.1.28.28,0,0,1,0-.22l.28-.86a.44.44,0,0,1,.34-.28h2.57a.1.1,0,0,0,0,0l-2.34-6.11,0-.11,0,.11v0l-3,7.69L78.93,49.8a4.31,4.31,0,0,0-.36,1.43c0,.31.11.6.91.6h.36c.3,0,.44.1.44.33s-.33.33-.46.33c-.42,0-.92,0-1.41,0s-1-.05-1.35-.05l-.5,0c-.55,0-1.47.07-2.37.07-.18,0-.52,0-.52-.33a.31.31,0,0,1,.35-.33h.37a2.3,2.3,0,0,1,.37,0c1.1-.16,1.5-.93,2-2.06l6.47-15c.26-.64.48-1,.8-1s.55.27.8.81,1.29,3,2.47,5.77c1.39,3.28,3,7,3.82,8.95s1.57,2.42,2.06,2.52a6.73,6.73,0,0,0,.91.08c.36,0,.42.2.42.33C94.48,52.45,94.23,52.49,93.33,52.49Z" fill="#fff"/>
        </g>
      </g>
      <rect x="21.98" y="65.65" width="138.3" height="0.97" fill="#fff"/>
    </g>
    <g>
      <path d="M9.16,109.24c-.05.38-.18,1.63-.29,2.48l-.53,0a4,4,0,0,0-.27-1.44c-.18-.34-.47-.47-1.54-.47h-1c-.54,0-.62.12-.73.66L4.13,114H5.6C7,114,7,113.9,7.49,112.86H8l-.62,3.2H6.85c0-1.19-.06-1.31-1.42-1.31H4l-.53,2.86c-.24,1.28-.11,1.41,1.31,1.52l-.12.5H0l.13-.5c1.13-.11,1.28-.25,1.52-1.52l1.22-6.34c.24-1.31.17-1.42-1.08-1.53l.11-.5Z" fill="#fff"/>
      <path d="M8.74,117.24a4.78,4.78,0,0,1,2.4-4.27,4.21,4.21,0,0,1,2-.58,2.22,2.22,0,0,1,2.29,2.53,5.13,5.13,0,0,1-1.72,3.88,4.24,4.24,0,0,1-2.64,1C9.26,119.82,8.74,118.49,8.74,117.24Zm3.36,1.81c.7-.29,1.49-2,1.49-4.16,0-1.26-.47-1.82-1.08-1.82a1.25,1.25,0,0,0-.46.09c-.5.24-1.51,1.57-1.51,4.15,0,1.2.5,1.82,1.11,1.82A1.25,1.25,0,0,0,12.1,119.05Z" fill="#fff"/>
      <path d="M19.11,115c.78-1.48,1.64-2.6,2.32-2.6a.93.93,0,0,1,.73.42.77.77,0,0,1,0,.88,2.35,2.35,0,0,1-.52.61.29.29,0,0,1-.38,0,.88.88,0,0,0-.61-.3c-.16,0-.35.1-.69.56a7.92,7.92,0,0,0-1,1.84c-.22.93-.46,2.15-.62,3.07a12.77,12.77,0,0,0-1.57.32l-.13-.12c.4-1.68.78-3.45,1.1-5.16.1-.51.1-.72,0-.72a2.76,2.76,0,0,0-1,.64l-.24-.41a5,5,0,0,1,2.49-1.64c.45,0,.55.61.29,1.86L19,115Z" fill="#fff"/>
      <path d="M30.63,113.31l-1.52.08-.87,4.16c-.16.73-.08.94.08.94a3.62,3.62,0,0,0,1.36-.86l.24.38a4.71,4.71,0,0,1-2.82,1.81c-.51,0-.84-.53-.48-2.22l.9-4.21H26.37l-.08-.16.43-.56h1l.35-1.49,1.64-1.11.17.15-.56,2.45h1.79Z" fill="#fff"/>
      <path d="M38.32,118.2a4.51,4.51,0,0,1-2.59,1.62c-.48,0-.69-.43-.4-1.71l.82-3.49c.16-.69.08-1-.15-1-.59,0-2,1.41-2.81,2.69-.2.78-.48,2.3-.65,3.13a12.29,12.29,0,0,0-1.6.34l-.11-.13c.67-3,1.32-6.11,1.94-9.44.14-.79,0-.83-.64-.87h-.39l.12-.48a18.06,18.06,0,0,0,2.7-.56c.19,0,.23.13.13.56l-1.33,6.29h0a9.44,9.44,0,0,1,2.6-2.37,3,3,0,0,1,1.23-.42c.4,0,1,.26.53,2.26L37,117.79c-.09.48-.06.62.05.62a2.69,2.69,0,0,0,1-.64Z" fill="#fff"/>
      <path d="M44.83,117.9a5.07,5.07,0,0,1-3.61,1.92c-.88,0-1.91-.48-1.91-2.37a5.27,5.27,0,0,1,1.89-4.08,4.57,4.57,0,0,1,2.47-1,1.39,1.39,0,0,1,1.57,1.35c0,1.63-2.57,2.45-4.15,2.86a3.78,3.78,0,0,0,0,.45c0,.83.29,1.62,1.16,1.62a3.8,3.8,0,0,0,2.32-1.2Zm-2.36-4.63A3.9,3.9,0,0,0,41.15,116c1.92-.56,2.53-1.25,2.53-2.07,0-.61-.37-.86-.67-.86A1,1,0,0,0,42.47,113.27Z" fill="#fff"/>
      <path d="M54.91,109.24c3.35,0,5.37,1.36,5.37,4.4a5.53,5.53,0,0,1-2.64,4.84,9.42,9.42,0,0,1-5,1.15h-3.7l.13-.5c1.2-.11,1.34-.3,1.57-1.49l1.22-6.37c.24-1.26.14-1.41-1.11-1.53l.13-.5Zm-2.44,8.19c-.16.82-.12,1.13.16,1.32a1.66,1.66,0,0,0,.94.22c2.85,0,4.66-2.49,4.66-5.47,0-2.1-1.11-3.65-3.32-3.65A1.59,1.59,0,0,0,54,110c-.15.12-.23.31-.32.82Z" fill="#fff"/>
      <path d="M64.69,118.11A5,5,0,0,1,62,119.82c-.41,0-.72-.3-.38-1.68l.88-3.76c.1-.39.11-.55,0-.55a3.4,3.4,0,0,0-1,.6l-.22-.4a5.64,5.64,0,0,1,2.75-1.65c.43,0,.48.59.26,1.47l-1,4c-.1.43-.06.59.05.59a2.8,2.8,0,0,0,1.05-.69Zm.27-8a1.1,1.1,0,0,1-1.07,1.12.78.78,0,0,1-.82-.86,1.11,1.11,0,0,1,1.09-1.12A.79.79,0,0,1,65,110.12Z" fill="#fff"/>
      <path d="M65.36,118.59a1.06,1.06,0,0,1,.53-.83c.24-.15.37-.12.49,0a2.49,2.49,0,0,0,1.73,1.12.77.77,0,0,0,.85-.72c0-.35-.21-.66-1-1.25s-1.54-1.11-1.54-2a2.12,2.12,0,0,1,.95-1.7,3.47,3.47,0,0,1,1.9-.8c.8,0,1.39.5,1.39,1a1,1,0,0,1-.49.8c-.18.11-.32.1-.42-.06a1.82,1.82,0,0,0-1.38-.85.67.67,0,0,0-.7.69c0,.48.5.89,1.11,1.31.92.64,1.47,1.19,1.47,2,0,1.36-1.76,2.54-3.11,2.54C66.3,119.82,65.38,119.26,65.36,118.59Z" fill="#fff"/>
      <path d="M78.9,118.17a4.47,4.47,0,0,1-2.56,1.65c-.43,0-.71-.37-.39-1.7.28-1.13.53-2.27.79-3.41.21-.84.11-1-.1-1-.57,0-2.17,1.78-2.81,2.9-.21.83-.47,1.91-.66,2.91a12,12,0,0,0-1.59.32l-.11-.12c.42-1.67.85-3.46,1.23-5.29.12-.49.1-.62,0-.62a3.19,3.19,0,0,0-1,.67l-.2-.45a4.73,4.73,0,0,1,2.54-1.6c.42,0,.58.52.26,1.94l-.24,1h0a11,11,0,0,1,2.54-2.5,2.39,2.39,0,0,1,1.24-.45c.48,0,1,.29.48,2.4-.23,1-.47,2-.71,3-.09.4-.06.56.05.56a2.61,2.61,0,0,0,1-.68Z" fill="#fff"/>
      <path d="M85.44,117.9a5.07,5.07,0,0,1-3.62,1.92c-.88,0-1.9-.48-1.9-2.37a5.27,5.27,0,0,1,1.89-4.08,4.54,4.54,0,0,1,2.46-1,1.39,1.39,0,0,1,1.57,1.35c0,1.63-2.56,2.45-4.14,2.86a3.78,3.78,0,0,0,0,.45c0,.83.29,1.62,1.15,1.62a3.78,3.78,0,0,0,2.32-1.2Zm-2.37-4.63A3.9,3.9,0,0,0,81.76,116c1.92-.56,2.53-1.25,2.53-2.07,0-.61-.37-.86-.67-.86A1,1,0,0,0,83.07,113.27Z" fill="#fff"/>
      <path d="M90.29,118.2c.78-1.16,1.89-2.85,1.89-4a2.13,2.13,0,0,0-.23-.82.75.75,0,0,1,0-.51,1,1,0,0,1,.8-.5c.39,0,.75.36.77,1a3.64,3.64,0,0,1-.61,1.76c-.72,1.22-1.81,2.82-2.7,4.08a47.11,47.11,0,0,1-3,3.88l-2,.48-.12-.4A13.91,13.91,0,0,0,88.83,120a35.66,35.66,0,0,0-.54-5.35c-.11-.64-.23-.81-.34-.81s-.45.29-.88.86l-.32-.41c.63-1,1.51-1.88,2.16-1.88s.84.58,1,2c.16,1.28.26,2.42.34,3.76Z" fill="#fff"/>
      <path d="M111.4,109.74c-1.28.12-1.35.19-1.52,1.4-.36,2.34-.58,4.18-.84,6.28-.19,1.5-.11,1.6,1.14,1.71l-.11.5H105.7l.13-.5c1.09-.11,1.18-.22,1.42-1.71.34-2.31.67-4.29,1-6.44h-.06l-5,8.55h-.44c-.47-2.78-1-5.36-1.49-8.45h0l-1.12,4a23.47,23.47,0,0,0-.72,3c-.11.72.09,1,1.17,1l-.12.5H96.8l.13-.5a1.43,1.43,0,0,0,1.49-1c.2-.54.49-1.34,1-3.06l1.06-3.48c.43-1.48.35-1.69-1.09-1.81l.16-.5h3c.5,2.43,1,4.71,1.54,7.28l4.48-7.28h2.94Z" fill="#fff"/>
      <path d="M116.82,117.9a5.08,5.08,0,0,1-3.62,1.92c-.88,0-1.91-.48-1.91-2.37a5.3,5.3,0,0,1,1.89-4.08,4.57,4.57,0,0,1,2.47-1,1.39,1.39,0,0,1,1.57,1.35c0,1.63-2.56,2.45-4.15,2.86,0,.18,0,.32,0,.45,0,.83.28,1.62,1.15,1.62a3.8,3.8,0,0,0,2.32-1.2Zm-2.37-4.63a3.87,3.87,0,0,0-1.31,2.76c1.92-.56,2.52-1.25,2.52-2.07,0-.61-.36-.86-.67-.86A1,1,0,0,0,114.45,113.27Z" fill="#fff"/>
      <path d="M125.3,118.09a4.36,4.36,0,0,1-2.61,1.73c-.37,0-.66-.24-.4-1.52l.24-1.15h0a10.72,10.72,0,0,1-2,2,2.67,2.67,0,0,1-1.55.7c-.64,0-1.18-.67-1.18-2a5.34,5.34,0,0,1,4.72-5.45,3,3,0,0,1,.91.13l.46-2.35c.13-.71,0-.79-.68-.8h-.36l.07-.48a24.59,24.59,0,0,0,2.77-.56c.17,0,.21.13.11.51-.72,3.12-1.31,6-1.86,9-.09.45-.08.61,0,.61a2.59,2.59,0,0,0,1.06-.73Zm-2.58-2.22.5-2.29a1.82,1.82,0,0,0-1.2-.45,1.39,1.39,0,0,0-.84.24c-1,.74-1.56,2.88-1.56,4.13,0,.69.2,1,.46,1C120.8,118.52,122.22,116.8,122.72,115.87Z" fill="#fff"/>
      <path d="M129.66,118.11a5,5,0,0,1-2.65,1.71c-.42,0-.72-.3-.39-1.68l.88-3.76c.1-.39.12-.55,0-.55a3.39,3.39,0,0,0-1,.6l-.23-.4a5.69,5.69,0,0,1,2.75-1.65c.44,0,.48.59.26,1.47l-1,4c-.09.43-.06.59,0,.59a2.81,2.81,0,0,0,1.06-.69Zm.28-8a1.11,1.11,0,0,1-1.08,1.12.78.78,0,0,1-.81-.86,1.11,1.11,0,0,1,1.09-1.12A.79.79,0,0,1,129.94,110.12Z" fill="#fff"/>
      <path d="M135.9,118a4.76,4.76,0,0,1-3.29,1.81c-1.19,0-1.89-.85-1.89-2.39a5.29,5.29,0,0,1,1.71-3.85,4.72,4.72,0,0,1,2.69-1.19c.74,0,1.35.39,1.35.88a1.07,1.07,0,0,1-.63.9.28.28,0,0,1-.43-.06c-.4-.63-.82-.9-1.25-.9s-.72.32-1,.85a6.63,6.63,0,0,0-.64,2.94c0,1.16.4,1.67,1.05,1.67a3.65,3.65,0,0,0,2-1.09Z" fill="#fff"/>
      <path d="M144.16,118a4.62,4.62,0,0,1-2.66,1.81c-.35,0-.65-.22-.38-1.58l.22-1.09h0a10.6,10.6,0,0,1-1.75,1.89,2.93,2.93,0,0,1-1.63.78c-.56,0-1.06-.64-1.06-1.9a5.73,5.73,0,0,1,1.83-4.17,5.37,5.37,0,0,1,3.26-1.36,5.24,5.24,0,0,1,1,.12,4.44,4.44,0,0,0,.82.09l.08.07c-.31,1.24-.74,3.13-1.07,5.07-.1.51-.07.66,0,.66a3.43,3.43,0,0,0,1.1-.8Zm-2.62-2.13c.2-.73.48-2,.56-2.51a2.35,2.35,0,0,0-1-.21,1.36,1.36,0,0,0-.87.26c-1,.75-1.6,2.7-1.6,4.16,0,.66.15.94.39.94C139.63,118.52,141.19,116.65,141.54,115.88Z" fill="#fff"/>
      <path d="M148.21,118.14a4.78,4.78,0,0,1-2.66,1.68c-.38,0-.69-.35-.34-2,.52-2.5,1-5,1.52-7.46.18-.8.1-.91-.57-1l-.45,0,.08-.45a17.94,17.94,0,0,0,2.72-.57c.19,0,.21.16.13.56-.61,3-1.23,6-1.84,9-.11.45-.07.61,0,.61a3.26,3.26,0,0,0,1.12-.74Z" fill="#fff"/>
      <path d="M158,109.24c2.1,0,3.62.74,3.62,2.74,0,2.16-1.83,3.36-3.89,3.52a4.44,4.44,0,0,1-.53,0l-1.12-.3-.48,2.42c-.26,1.31-.11,1.4,1.3,1.53l-.1.5h-4.64l.11-.5c1.18-.11,1.3-.22,1.57-1.53l1.23-6.29c.26-1.33.16-1.45-1.06-1.57l.12-.5Zm-1.79,5.36a2.36,2.36,0,0,0,1,.19,2.73,2.73,0,0,0,2.48-3c0-1.31-.71-2-1.8-2a1.67,1.67,0,0,0-.64.13c-.16.1-.25.32-.35.82Z" fill="#fff"/>
      <path d="M165.29,118.14a4.77,4.77,0,0,1-2.65,1.68c-.39,0-.69-.35-.34-2,.51-2.5,1-5,1.52-7.46.18-.8.1-.91-.57-1l-.45,0,.08-.45a17.94,17.94,0,0,0,2.72-.57c.19,0,.21.16.13.56-.61,3-1.24,6-1.84,9-.12.45-.07.61,0,.61a3.17,3.17,0,0,0,1.12-.74Z" fill="#fff"/>
      <path d="M173.47,118a4.62,4.62,0,0,1-2.66,1.81c-.35,0-.65-.22-.38-1.58l.22-1.09h0a10.6,10.6,0,0,1-1.75,1.89,2.93,2.93,0,0,1-1.63.78c-.56,0-1.06-.64-1.06-1.9a5.73,5.73,0,0,1,1.83-4.17,5.37,5.37,0,0,1,3.26-1.36,5.24,5.24,0,0,1,1,.12,4.44,4.44,0,0,0,.82.09l.08.07c-.31,1.24-.74,3.13-1.07,5.07-.1.51-.07.66,0,.66a3.43,3.43,0,0,0,1.1-.8Zm-2.62-2.13c.21-.73.48-2,.56-2.51a2.35,2.35,0,0,0-1-.21,1.38,1.38,0,0,0-.87.26c-1,.75-1.6,2.7-1.6,4.16,0,.66.15.94.39.94C168.94,118.52,170.5,116.65,170.85,115.88Z" fill="#fff"/>
      <path d="M181.74,118.17a4.44,4.44,0,0,1-2.56,1.65c-.43,0-.7-.37-.38-1.7.27-1.13.53-2.27.78-3.41.21-.84.11-1-.09-1-.58,0-2.18,1.78-2.82,2.9-.21.83-.46,1.91-.66,2.91a11.88,11.88,0,0,0-1.58.32l-.11-.12c.41-1.67.85-3.46,1.23-5.29.11-.49.1-.62,0-.62a3.18,3.18,0,0,0-1,.67l-.21-.45a4.74,4.74,0,0,1,2.55-1.6c.41,0,.57.52.25,1.94l-.24,1h0a10.82,10.82,0,0,1,2.55-2.5,2.36,2.36,0,0,1,1.23-.45c.48,0,1,.29.48,2.4-.22,1-.46,2-.7,3-.1.4-.07.56.05.56a2.6,2.6,0,0,0,1-.68Z" fill="#fff"/>
    </g>
    <g>
      <path d="M173.66,84.25a2.78,2.78,0,0,0,1.31.35c.62,0,1-.3,1-.74s-.27-.65-.95-.9c-.89-.32-1.46-.79-1.46-1.56s.73-1.55,1.91-1.55a2.76,2.76,0,0,1,1.29.27l-.24.79a2.37,2.37,0,0,0-1.08-.26c-.62,0-.88.33-.88.65s.31.61,1,.89c.93.35,1.38.82,1.38,1.6s-.65,1.62-2,1.62a3.17,3.17,0,0,1-1.46-.34Z" fill="#fff"/>
      <path d="M182.38,83.12c0-.69-.07-1.53-.06-2.26h0c-.17.66-.4,1.38-.64,2.06l-.79,2.34h-.75l-.72-2.3c-.21-.69-.4-1.43-.54-2.1h0c0,.7-.06,1.56-.09,2.3l-.12,2.16h-.92l.36-5.39h1.29l.7,2.17c.2.63.36,1.27.5,1.87h0c.15-.58.33-1.25.54-1.88l.74-2.16h1.28l.31,5.39h-1Z" fill="#fff"/>
    </g>
  </g>
</svg>
