<svg xmlns="http://www.w3.org/2000/svg" viewBox="0 0 162 174.91"><title>avatar</title><g id="Layer_1" data-name="Layer 1"><circle cx="81" cy="93.38" r="81" fill="#65e5e1"/></g><g id="Layer_2" data-name="Layer 2"><path d="M145.56,131.55H18.5a11.94,11.94,0,0,0-8.15,3.23,81,81,0,0,0,143.14-.2A11.93,11.93,0,0,0,145.56,131.55Z" transform="translate(-0.5 -2.82)" fill="#825064"/><path d="M63,73.34v70.8h.09c.89,5.33,8.81,9.5,18.45,9.5s17.56-4.17,18.45-9.5H100V73.34Z" transform="translate(-0.5 -2.82)" fill="#d3c1a5"/><ellipse cx="88.12" cy="112.44" rx="18.99" ry="23.28" transform="translate(-47.65 155.54) rotate(-70.66)" fill="#a08f78"/><path d="M131.36,66.26c-1.71-12.94-3.3-19.35-9.35-26.92a38.71,38.71,0,0,0-64.09,43c.67,1.21,1.68,2.35,2.26,3.58a6.54,6.54,0,0,1,.28,1.91q.13,1.12.29,2.23a70.19,70.19,0,0,0,1.61,7.81A60.69,60.69,0,0,0,68,111.9c4.19,7.48,10.41,14.31,18.56,17.44a26,26,0,0,0,22.57-2.07c7.57-4.46,13-11.94,16.54-19.84a70.29,70.29,0,0,0,5.71-31.66C131.25,72.58,131.91,69.41,131.36,66.26Z" transform="translate(-0.5 -2.82)" fill="#d3c1a5"/><path d="M53.06,63.44s3.54-16.91-2.58-18.31c0,0,1.95-3.06,6.12-1.67,0,0,1.39-7.24-6.12-8.07,0,0,6.12-4.45,11.41,0,0,0-3.17-18.69,19.61-17.81s24.65-6.68,24.65-6.68,3.22,8.35-3.4,9.19a86.35,86.35,0,0,1,28.83-9.19c16-1.95,16.32-8.07,16.32-8.07S157,31.49,131.58,41.52c0,0,5.08,4.24,6.42,1.11,0,0,5.45,7.24-4.57,9.19,0,0,.79,5.85,4.57,4.73s-7.61,3.1-7.61,3.1,0-11.73-7.81-14.52c0,0-18.37-10.58-51.77,4.18l-.67,17.5L53.06,69.35Z" transform="translate(-0.5 -2.82)" fill="#56352c"/><rect x="47.9" y="55.65" width="24" height="35.82" rx="12" ry="12" fill="#e2d086" stroke="#a59e42" stroke-miterlimit="10"/><rect x="45.74" y="59.48" width="18.9" height="29.31" rx="9.45" ry="9.45" fill="#a59e42" stroke="#e2d086" stroke-miterlimit="10"/><rect x="67.4" y="58.65" width="70.5" height="28.5" rx="12" ry="12" fill="#e2d086" stroke="#a59e42" stroke-miterlimit="10"/><line x1="94.46" y1="108.28" x2="110.04" y2="108.28" fill="#5dcece" stroke="#000" stroke-miterlimit="10"/><rect x="79.41" y="71.83" width="55.31" height="6.5" rx="3.25" ry="3.25" fill="#c44343" stroke="#894040" stroke-miterlimit="10"/><path d="M110.3,109a4.25,4.25,0,0,0,1.38,4.42" transform="translate(-0.5 -2.82)" fill="none" stroke="#000" stroke-miterlimit="10"/><path d="M94.7,109.23a4.25,4.25,0,0,1-1.38,4.42" transform="translate(-0.5 -2.82)" fill="none" stroke="#000" stroke-miterlimit="10"/><rect x="122.6" y="73.5" width="9.39" height="3.16" fill="#fff"/><rect x="116.27" y="73.56" width="4.7" height="2.85" fill="#fff"/><path d="M95.09,41.34s7.52,3.57,5,10.07c0,0,8.51-7.45,2.76-10.72s-7.79.65-7.79.65" transform="translate(-0.5 -2.82)" fill="#56352c"/></g></svg>