<?xml version="1.0" encoding="utf-8"?>
<!-- Generator: Adobe Illustrator 22.0.0, SVG Export Plug-In . SVG Version: 6.00 Build 0)  -->
<svg version="1.1" id="Layer_1" xmlns="http://www.w3.org/2000/svg" xmlns:xlink="http://www.w3.org/1999/xlink" x="0px" y="0px"
	 viewBox="0 0 250 97" style="enable-background:new 0 0 250 97;" xml:space="preserve">
<style type="text/css">
	.st0{fill:#777777;}
</style>
<g>
	<g>
		<path class="st0" d="M67.6,87.2c-15.2-5.3-11.9-11.4-11.9-11.4c7.3-6.3,29.5-12.7,64.6-15.7c30-2.6,22.6-7.2,19.5-9.2
			c-14.6-9.3-48.2-16.1-48.2-16.1s31.1,0.4,60.8,8.6c46.8,12.8,39.4,17.5,34.4,17.9c-11.4,1-55.4,3.5-93.3,28.7
			c-1.3,0.9-2.9,1.4-4.7,1.8C88.8,91.8,84.3,93.1,67.6,87.2"/>
	</g>
	<g>
		<path class="st0" d="M59.1,17h13c1.2,0,2.5-1,2.9-2.2l0.6-2c0.4-1.2-0.2-2.2-1.4-2.2l-16.6,0l-6.3,19.2l-4.5,0
			c-2.5,0-3.8-2.3-2.8-5.1l6.3-19.3h30.2c3.6,0,5.7,2.8,4.7,6L84,14.6c-1.3,2.6-3.6,4.1-5.7,4.3c2.6,0.4,3.7,2.3,2.5,5.5L79,29.7
			h-3.7c-3.2,0-4.3-2.2-3.7-4.8l0.2-0.6c0.3-1,0.1-2.8-1-2.9l-9.3,0c-2.6,0-3.3-1.6-2.9-2.7L59.1,17z"/>
	</g>
	<g>
		<path class="st0" d="M229.3,29.6c3.6,0,7.4-2.7,8.4-6l1.2-3.5c0.9-2.9-0.5-5.1-3-5.1l-3.1,0l-16.3,0c-1.2,0-1.8-1.2-1.4-2.4l0,0.1
			c0.5-1.1,1.7-2.1,2.8-2.1l16.3,0l6.5,0h0c0.9-2.9-1.1-5.3-4.6-5.3l-21.2,0c-3.6,0-7.4,2.7-8.5,6l-1.1,3.5c-0.9,2.9,0.5,5.1,3,5.1
			l2.9,0h16.2c1.1,0,1.7,0.8,1.5,1.9l0,0.1c-0.4,1.3-1.7,2.5-2.9,2.5l-24,0c-1.2,3.9,1.4,5.3,3.1,5.3l8.9,0L229.3,29.6z"/>
		<path class="st0" d="M37,12.8C37,12.8,37,12.7,37,12.8c-0.4,1.2-1.7,2.2-2.9,2.2H21.2c0,0-0.3,0.7-0.5,1.6
			c-0.4,1.4,0.4,2.8,3.1,2.8l3,0h5.9c1.2,0,1.7,1.5,1.2,2.9c-0.5,1.4-1.7,2.2-2.9,2.2H14.3l4.6-13.9l16.6,0
			C36.7,10.5,37.3,11.5,37,12.8C37,12.7,37,12.7,37,12.8L37,12.8z M40.1,16.8c2.5-0.1,5.3-2.3,6.2-5l0.2-0.5c1.1-3.2-1-5.9-4.6-5.9
			l-30.2,0L5.3,24.6c-0.9,2.8,0.4,5,3,5h4.9l21.5,0c3.2,0,6.7-2.9,7.9-6.5l0.6-1.7C43.9,18.9,42.6,16.9,40.1,16.8"/>
	</g>
	<g>
		<path class="st0" d="M114.7,19c-0.9,2.7-3.8,5.5-9.5,5.5H99c-3.8,0-6.4-2.8-5.6-5.5l0.9-2.8c0.9-2.7,4.3-5.6,8.5-5.6h6.2
			c5.7,0,7.1,2.6,6.5,5.6L114.7,19z M116,5.1H99.9c-6.6,0-12.4,4.5-14.1,9.7l-1.5,4.5c-1.5,4.4,1.7,10.5,8.8,10.5h16
			c7.8,0,12.4-4.5,14.1-9.6l1.4-4C126.3,11.2,123.3,5.1,116,5.1"/>
		<path class="st0" d="M156,19c-0.9,2.7-3.8,5.5-9.5,5.5h-6.2c-3.8,0-6.4-2.8-5.6-5.5l0.9-2.8c0.9-2.7,4.3-5.6,8.5-5.6h6.2
			c5.7,0,7.1,2.6,6.5,5.6L156,19z M157.2,5.1h-16.1c-6.6,0-12.4,4.5-14.1,9.7l-1.5,4.5c-1.5,4.4,1.7,10.5,8.8,10.5h16
			c7.8,0,12.4-4.5,14.1-9.6l1.4-4C167.5,11.2,164.6,5.1,157.2,5.1"/>
		<path class="st0" d="M175.9,20.2c0.3-0.5,0.8-1.5,2.1-1.5c0.3,0,0.5,0.1,0.5,0.1l11,10.9h12.8c0,0-13.4-11.9-13.1-12.7
			c0.3-0.8,19.4-11.6,19.4-11.6h-12.3c0,0-14.5,9.6-16.6,9.6c-1.8,0-1.7-1.3-1.6-1.7l0.9-2.8c0.9-2.8-0.4-5-3-5h-4.2l-0.2,0
			l-6.3,19.2c-0.9,2.8,0.4,5,3,5h4l0.5,0l3-9.1L175.9,20.2z"/>
		<path class="st0" d="M242.5,24.9c1.3,0,2.5,1,2.5,2.4c0,1.4-1.1,2.4-2.5,2.4c-1.3,0-2.5-1-2.5-2.4
			C240.1,25.9,241.2,24.9,242.5,24.9 M242.5,25.3c-1.1,0-2,0.9-2,2c0,1.2,0.9,2,2,2c1.1,0,2-0.9,2-2
			C244.5,26.2,243.7,25.3,242.5,25.3 M242,28.7h-0.4v-2.8h1.1c0.7,0,1,0.2,1,0.8c0,0.5-0.3,0.7-0.7,0.8l0.8,1.2h-0.5l-0.7-1.2H242
			V28.7z M242,27.2h0.5c0.5,0,0.7-0.1,0.7-0.5c0-0.3-0.1-0.4-0.6-0.4H242V27.2z"/>
	</g>
</g>
</svg>
