<?xml version="1.0" encoding="utf-8"?>
<!-- Generator: Adobe Illustrator 22.0.0, SVG Export Plug-In . SVG Version: 6.00 Build 0)  -->
<svg version="1.1" id="svg4419" xmlns:svg="http://www.w3.org/2000/svg"
	 xmlns="http://www.w3.org/2000/svg" xmlns:xlink="http://www.w3.org/1999/xlink" x="0px" y="0px" viewBox="0 0 300 198.5"
	 style="enable-background:new 0 0 300 198.5;" xml:space="preserve">
<style type="text/css">
	.st0{fill:#777777;}
</style>
<path id="path4423" class="st0" d="M88.8,84.4v48.1H73.5V72l31.6,0c13.4,0,18,9.5,18,18.1v42.4h-15.3V90.2c0-3.6-1.9-5.8-6.4-5.8
	L88.8,84.4L88.8,84.4z M193,83.6c-5.2,0-9.3,2.7-11,6.3c-1,2.2-1.3,3.9-1.5,6.6h23.6C203.8,90,200.8,83.6,193,83.6 M180.5,107
	c0,7.8,4.9,13.6,13.6,13.6c6.8,0,10.1-1.9,14-5.8l9.5,9c-6.1,6-12.4,9.6-23.6,9.6c-14.7,0-28.7-8-28.7-31.3
	c0-19.9,12.3-31.2,28.4-31.2c16.3,0,25.7,13.2,25.7,30.5v5.5L180.5,107 M152.3,132.4c-12.5,0-17.8-8.7-17.8-17.3V55.5h15.3V72h11.5
	v12.4h-11.5v29.8c0,3.5,1.7,5.5,5.3,5.5h6.2v12.8L152.3,132.4 M59.9,63.6H44.4V49h15.4C59.9,49,59.9,63.6,59.9,63.6z M59.9,133.1
	c-11.6-1.1-15.5-8.1-15.5-16.2l0-44.9h15.5L59.9,133.1L59.9,133.1z M243.7,131.8c-11.5-1.1-15.4-8.1-15.4-16.2V46.9h15.4V131.8z
	 M297.7,56.8C283.7-11.4,151.3-15.7,66,36.3V42C151.2-1.8,272.1-1.6,283.1,61.3c3.7,20.8-8,42.4-28.9,54.9v16.3
	C279.4,123.2,305.2,93.4,297.7,56.8 M142.6,176.2c-58.9,5.4-120.3-3.1-128.9-49.1c-4.2-22.7,6.1-46.7,19.8-61.7v-8
	C8.9,79-4.5,106.4,3.2,138.8c9.8,41.5,62.5,65,142.9,57.2c31.8-3.1,73.4-13.3,102.4-29.2v-22.6C222.2,159.9,178.8,172.8,142.6,176.2
	"/>
<path id="path4425" class="st0" d="M261.6,51.5c0-0.7-0.4-1-1.4-1h-1v2.1c0.1,0,0.8,0,1,0c1,0,1.4-0.3,1.4-1V51.5L261.6,51.5z
	 M263.1,56.7h-1.1c-0.1,0-0.2-0.1-0.2-0.2l-1.6-2.6c0-0.1-0.2-0.1-0.2-0.1h-0.7v2.6c0,0.1-0.1,0.3-0.3,0.3h-1
	c-0.1,0-0.3-0.2-0.3-0.3v-6.6c0-0.4,0.1-0.5,0.5-0.6c0.4,0,1.4-0.1,1.9-0.1c1.9,0,3,0.6,3,2.3v0.1c0,1.1-0.5,1.7-1.4,2l1.6,2.7
	c0,0.1,0,0.1,0,0.2C263.3,56.6,263.2,56.7,263.1,56.7 M260.4,47.9c-2.8,0-5.1,2.3-5.1,5.1c0,2.8,2.3,5.1,5.1,5.1
	c2.8,0,5.1-2.3,5.1-5.1C265.4,50.2,263.2,47.9,260.4,47.9 M260.4,59.2c-3.4,0-6.1-2.8-6.1-6.1c0-3.4,2.7-6.1,6.1-6.1
	c3.4,0,6.2,2.8,6.2,6.1C266.5,56.4,263.7,59.2,260.4,59.2"/>
</svg>
