<?xml version="1.0" encoding="utf-8"?>
<!-- Generator: Adobe Illustrator 22.0.0, SVG Export Plug-In . SVG Version: 6.00 Build 0)  -->
<svg version="1.1" id="Livello_1" xmlns="http://www.w3.org/2000/svg" xmlns:xlink="http://www.w3.org/1999/xlink" x="0px" y="0px"
	 viewBox="0 0 4838 1606.3" style="enable-background:new 0 0 4838 1606.3;" xml:space="preserve">
<style type="text/css">
	.st0{fill:#777777;}
</style>
<path class="st0" d="M4180.6,937c-3.7,40.6-21.5,69.6-48,89.2C4596.6,816.5,4870,583,4835,382.5C4769.3,4.7,3634.4-113.3,2300,119.3
	C1717.5,220.7,1193.3,372.1,793,541.9c21.3-5,44.8-7.3,69.5-7.3c70.8,0,168.6,17,168.6,126v35.1H906.4c0,0,0-21.7,0-30.9
	c0-27.3-17.3-45.4-46.5-45.4c-31.3,0-42.2,17.6-45.7,33.5c-1.2,5.7-1.9,16.4,0.5,26.4c14.1,58.5,204,89.8,225.1,194.5
	c2,10.7,6.6,39,0.5,82.2c-11.8,83.4-86.3,114.3-176.8,114.3c-94.1,0-181.9-33.7-181.9-145.2l0.1-38.7h134.2v48.4
	c0,27.4,19,45.4,50.4,45.4c33.2,0,44.5-17,48.7-33.6c2.3-9.4,3.8-25-1.1-37.1c-25.8-64.8-203.4-94.4-225.3-196.5
	c-5.2-25.1-4.7-45.1-1.1-67.6c5.7-35.1,22.6-60.6,47-78.2C253,780.2-32.7,1019.1,3,1223.8c65.8,377.9,1200.9,495.8,2535.2,263.4
	c595.3-103.7,1129.6-259.5,1533.1-433.9c-20.8,4.9-43.4,7.2-66.6,7.2c-88.8,0-167.6-32.5-176.1-123.5c-1.4-16.7-1.6-23.6-1.8-33
	l0.1-210.6c0-8.9,1.1-24.6,2.1-33c11.1-93.5,86.9-123.6,175.7-123.6c88.7,0,166.4,29.9,175.6,123.6c1.6,15.9,1.1,33,1.1,33v16.7
	h-126.1v-28c0.1,0.1-0.2-11.9-1.6-19c-2.1-11.1-11.7-36.5-49.9-36.5c-36.5,0-47.1,24-49.8,36.5c-1.5,6.6-2.1,15.5-2.1,23.6v228.8
	c-0.1,6.3,0.3,13.3,1.3,19c2,13.1,14.6,36,50.8,36s48.9-22.9,51.2-36.2c0.9-5.7,1.2-12.7,1.1-19v-72.6H4005v-73h177.4V904
	C4182.3,913.4,4182.1,920.3,4180.6,937z M1397.5,1050.6l-66.6-453.8h-2.8l-68.5,453.8h-135.1l92.7-500.2h222.5l92.4,500.2H1397.5z
	 M2063,1050.6l-3.3-449.7h-2.6l-83.6,449.7h-126.9l-83.7-449.7h-2.7l-3.1,449.7h-125.3l11.1-500.2H1847l61.7,382.4h2.7l61.8-382.4
	h204l10.8,500.2H2063z M2665.4,954.5c-11.7,82.6-85.5,113.1-175,113.1c-93.1,0-180.1-33.3-180.1-143.7l0.2-38.2h132.8l0.1,48
	c0,26.8,18.9,44.8,49.8,44.8c33,0,44.2-16.7,48.3-33.3c2.2-9.4,3.8-24.6-1.1-36.6c-25.5-64.1-201.4-93.5-222.9-194.6
	c-5.2-25-4.8-44.6-1.2-66.8c13-80.9,85.1-109.9,173.1-109.9c70.2,0,167.2,16.9,167.2,124.7v34.8h-123.8c0,0,0-21.5,0-30.6
	c0-27.2-16.9-44.8-45.9-44.8c-31,0-41.7,17.1-45.3,33.2c-1.2,5.4-1.9,15.9,0.5,25.9c14,58,201.9,89,222.9,192.7
	C2667.2,883.7,2671.5,911.6,2665.4,954.5z M3135,941.8c-8.9,93.4-82.7,123.7-174.6,123.7c-92,0-165.9-30.3-174.7-123.7
	c-0.4-4.7-1.3-23.7-1.1-32.8V550.2H2911v370.1c0,6.5,0.2,13.8,1.2,19.1c2.8,12.3,13.3,36.4,48.3,36.4c34.7,0,45.5-24,47.9-36.3
	c1-5.4,1.3-12.6,1.2-19.1V550.2h126.5V909C3136.4,918.2,3135.5,937.1,3135,941.8z M3696.1,1045.4h-178l-123.6-406.2h-2.7l6.9,406.2
	h-123.1v-495h185.8l115,392.7h2.7l-6.8-392.7h123.8V1045.4z"/>
</svg>
