
<svg xmlns="http://www.w3.org/2000/svg" version="1.1" xmlns:xlink="http://www.w3.org/1999/xlink" preserveAspectRatio="none" x="0px" y="0px" width="45px" height="96px" viewBox="0 0 45 96">
<defs>
<filter id="Filter_1" x="-40.07896423540608%" y="-20%" width="180.15792847081218%" height="140%" color-interpolation-filters="sRGB">
<feGaussianBlur in="SourceGraphic" stdDeviation="2.6666666666666665,0" result="result1"/>

<feColorMatrix in="result1" type="matrix" values="0 0 0 0 1 0 0 0 0 1 0 0 0 0 1 0 0 0 0.15 0" result="result2"/>
</filter>

<filter id="Filter_2" x="-20%" y="-20%" width="140%" height="140%" color-interpolation-filters="sRGB">
<feColorMatrix in="SourceGraphic" type="matrix" values="0 0 0 0 1 0 0 0 0 1 0 0 0 0 1 0 0 0 0.3 0" result="result1"/>
</filter>

<filter id="Filter_3" x="-20%" y="-20%" width="140%" height="140%" color-interpolation-filters="sRGB">
<feColorMatrix in="SourceGraphic" type="matrix" values="0 0 0 0 1 0 0 0 0 1 0 0 0 0 1 0 0 0 1 0" result="result1"/>
</filter>

<g id="MC_Duplicate_Items_Folder_bar2_0_Layer0_0_FILL">
<path fill="#F3D54E" stroke="none" d="
M 6 0
L 0 0 0 300 6 300 6 0 Z"/>
</g>
</defs>

<g transform="matrix( 1, 0, 0, 1, 6,0) ">
<g filter="url(#Filter_1)" transform="matrix( 1, 0, 0, 1, -6,0) ">
<g transform="matrix( 5.99993896484375, 0, 0, 0.3133392333984375, 6,1) ">
<g transform="matrix( 1, 0, 0, 1, 0,0) ">
<use xlink:href="#MC_Duplicate_Items_Folder_bar2_0_Layer0_0_FILL"/>
</g>
</g>
</g>

<g transform="matrix( 1.33331298828125, 0, 0, 0.32000732421875, 31,0) ">
<g transform="matrix( 1, 0, 0, 1, 0,0) ">
<use filter="url(#Filter_2)" xlink:href="#MC_Duplicate_Items_Folder_bar2_0_Layer0_0_FILL"/>
</g>
</g>

<g transform="matrix( 1, 0, 0, 0.3133392333984375, 32,1) ">
<g transform="matrix( 1, 0, 0, 1, 0,0) ">
<use filter="url(#Filter_3)" xlink:href="#MC_Duplicate_Items_Folder_bar2_0_Layer0_0_FILL"/>
</g>
</g>
</g>
</svg>
