<svg id="Layer_1" data-name="Layer 1" xmlns="http://www.w3.org/2000/svg" viewBox="0 0 255.01 21.19">
  <title>logo</title>
  <g>
    <path d="M434.39,387.5a2.48,2.48,0,1,1-2.46,2.47,2.44,2.44,0,0,1,2.46-2.47Zm0,.38a2.1,2.1,0,0,0,0,4.19,2,2,0,0,0,2-2.09,2,2,0,0,0-2-2.1Zm-.46,3.53h-.44v-2.76a5.39,5.39,0,0,1,.78-.06,1.48,1.48,0,0,1,.86.2.73.73,0,0,1-.29,1.25v0c.24,0,.41.26.46.67a2.49,2.49,0,0,0,.18.68H435a2,2,0,0,1-.19-.7.52.52,0,0,0-.59-.49h-.31Zm0-1.53h.32c.36,0,.67-.13.67-.47s-.18-.48-.67-.48l-.32,0Z" transform="translate(-181.81 -385.4)" fill="#fff"/>
    <g>
      <path d="M192.7,406.6c-7.48,0-10.89-5.5-10.89-10.6s3.49-10.6,11.16-10.6c6.73,0,10.91,3.88,10.91,10.12A10.68,10.68,0,0,1,192.7,406.6Zm-.51-19.76c-2.44,0-6.53,1.08-6.53,8.33,0,5.85,3.36,9.94,8.16,9.94,1.85,0,6.16-.84,6.16-8.6C200,390.82,196.77,386.84,192.19,386.84Z" transform="translate(-181.81 -385.4)" fill="#fff"/>
      <path d="M224.12,406.22h-2.25a5.27,5.27,0,0,1-2.61-.46c-1-.5-1.84-1.49-3.24-3.38-.53-.69-1.07-1.46-1.5-2.09s-.6-.87-.73-1a.48.48,0,0,0-.38-.13l-2.12-.06a.1.1,0,0,0-.11.11v.33c0,1.8,0,3.79.14,4.85.07.64.17,1,.85,1.14a8.86,8.86,0,0,0,1.14.08.35.35,0,0,1,.37.31c0,.1-.06.32-.56.32-.91,0-2.08,0-2.86-.06l-.82,0-1,0c-.61,0-1.37.05-1.92.05s-.53-.2-.53-.32.11-.31.44-.31a3.47,3.47,0,0,0,.82-.08c.43-.1.56-.48.64-1.14.11-1,.11-2.77.11-4.85v-4c0-3.48,0-4.1,0-4.83s-.23-1-1-1.16a3.83,3.83,0,0,0-.91-.08c-.3,0-.48-.12-.48-.32s.41-.29.59-.29c.78,0,1.62,0,2.3,0l.94,0,2,0,1.67,0a8.36,8.36,0,0,1,4.52,1,4.07,4.07,0,0,1,1.7,3.21c0,1.7-1,3.22-3.25,5.05l.28.33c2,2.42,3.51,4.33,4.85,5.67a4.29,4.29,0,0,0,2.42,1.47l.06,0a2.28,2.28,0,0,0,.55,0,.35.35,0,0,1,.38.31C224.66,406.22,224.28,406.22,224.12,406.22Zm-11.4-16.07a9.77,9.77,0,0,0-1.38.07c-.11,0-.16.08-.16.25v6.79c0,.22,0,.27.17.34a6.57,6.57,0,0,0,1.77.2,2.31,2.31,0,0,0,1.62-.36,3.78,3.78,0,0,0,1.5-3.32C216.24,391.19,214.34,390.15,212.72,390.15Z" transform="translate(-181.81 -385.4)" fill="#fff"/>
      <path d="M235.31,406.28c-1.73,0-3.08,0-4.24-.09l-.87,0-2.26,0h-.44l-.91,0h-.34c-.45,0-.91,0-1.29,0s-.54-.2-.54-.32.12-.31.46-.31a3.5,3.5,0,0,0,.81-.08c.44-.1.56-.48.64-1.14.11-1,.11-2.77.11-4.85v-4c0-3.48,0-4.1,0-4.83s-.23-1-1-1.16a3,3,0,0,0-.76-.08c-.4,0-.48-.17-.48-.32s.38-.29.57-.29c.64,0,1.38,0,2,0l1.22,0,1.39,0,2,0c.19,0,.59,0,.59.29s-.17.32-.51.32a5,5,0,0,0-.9.08c-.58.1-.77.36-.82,1.17s-.06,1.34-.06,4.82v4c0,2.89,0,4.34.49,4.74s1.27.47,3.09.47c1.32,0,2.16,0,2.71-.62a2.67,2.67,0,0,0,.57-1.33c0-.12,0-.41.34-.41.13,0,.29.1.29.58a17.61,17.61,0,0,1-.35,2.65C236.72,406.17,236.57,406.28,235.31,406.28Z" transform="translate(-181.81 -385.4)" fill="#fff"/>
      <path d="M274.62,406.49a1.45,1.45,0,0,1-1-.5c-1.37-1.28-4.27-4.05-6.89-6.58-1.67-1.59-3.29-3.31-4.36-4.44-.54-.56-.94-1-1.12-1.15l.26,9.21c.06,1.9.4,2.28.76,2.4a4,4,0,0,0,1.21.16c.35,0,.48.17.48.31,0,.32-.45.32-.61.32-1,0-1.84,0-2.39-.06l-.68,0-.4,0c-.48,0-1.29.06-2.14.06-.25,0-.62,0-.62-.32,0-.17.2-.31.46-.31a4.54,4.54,0,0,0,1.05-.11c.56-.14.64-.7.67-2.69l.21-13.53c0-.51.2-.85.48-.85s.6.3,1,.68l.09.09.33.33c1,1,4,4.08,6.95,6.95.92.91,2.34,2.34,3.48,3.5.78.79,1.41,1.43,1.59,1.6h0l-.24-10.07c0-1.42-.25-1.75-.75-1.94a4,4,0,0,0-1.21-.13c-.37,0-.45-.17-.45-.32s.4-.29.63-.29h0c.76,0,1.51,0,2.11,0l.9,0,.45,0c.43,0,1.08,0,1.86,0,.24,0,.61,0,.61.29s-.13.32-.48.32a2.25,2.25,0,0,0-.7.08c-.61.18-.78.57-.81,1.81l-.26,14.38C275.08,406.28,274.83,406.49,274.62,406.49Z" transform="translate(-181.81 -385.4)" fill="#fff"/>
      <path d="M286.07,406.41c-.65,0-1.39,0-2.1-.09l-.73,0c-1-.09-1.82-.14-2.38-.14h-.44l-.9,0h-.33c-.45,0-.92,0-1.31,0s-.53-.2-.53-.32.12-.31.45-.31a3.44,3.44,0,0,0,.81-.08c.44-.1.56-.48.65-1.14.1-1,.1-2.77.1-4.85v-4c0-3.48,0-4.1,0-4.83s-.24-1-1-1.16a3.92,3.92,0,0,0-.92-.08c-.3,0-.48-.12-.48-.32s.42-.29.6-.29c.73,0,1.51,0,2.2,0l1.22,0,1.35,0c.75,0,1.67,0,2.49,0,2.94,0,7,0,9.56,2.63a8,8,0,0,1,2.24,5.85A9,9,0,0,1,294,403.7C293.22,404.52,290.81,406.41,286.07,406.41Zm-1.69-16.26a5.44,5.44,0,0,0-1.42.14.35.35,0,0,0-.26.4c0,.77,0,2.64,0,4.45V398c0,2.34,0,4.15.05,4.62a4.53,4.53,0,0,0,.26,1.57c.29.43,1.24.88,3,.88a7.32,7.32,0,0,0,5.11-1.54c1.33-1.1,2-2.93,2-5.6a7.31,7.31,0,0,0-2.17-5.64A9.49,9.49,0,0,0,284.38,390.15Z" transform="translate(-181.81 -385.4)" fill="#fff"/>
      <path d="M308,406.52c-6.69,0-9.74-4.68-9.74-9s3.12-9,10-9c6,0,9.73,3.3,9.73,8.61C318,402.64,313.86,406.52,308,406.52Zm-.46-16.67c-2.11,0-5.64.9-5.64,7,0,4.9,2.9,8.32,7.06,8.32,1.61,0,5.35-.7,5.35-7.19C314.3,393.17,311.52,389.85,307.53,389.85Z" transform="translate(-181.81 -385.4)" fill="#fff"/>
      <path d="M256.41,406.23c-.82,0-2.55,0-4.53-.05h-.12c-.39,0-.65,0-.65-.25s.1-.29.36-.32a.23.23,0,0,0,.14-.12.33.33,0,0,0,0-.29l-1.83-4.59c0-.09-.08-.11-.17-.11h-3.26a.23.23,0,0,1-.2-.09.24.24,0,0,1,0-.23l.26-.82a.42.42,0,0,1,.38-.27h2.39v0l-2.24-5.84a.76.76,0,0,0,0-.11.45.45,0,0,0,0,.11l0,.05-2.9,7.35-1.26,3.06a4.09,4.09,0,0,0-.34,1.37c0,.3.1.57.86.57h.35c.29,0,.43.1.43.32s-.32.31-.46.31c-.39,0-.87,0-1.34,0s-.92,0-1.29,0l-.47,0c-.53,0-1.41.06-2.26.06-.18,0-.51,0-.51-.31a.31.31,0,0,1,.35-.32h.34l.35,0c1-.14,1.37-.72,1.89-2l6.18-14.37c.25-.6.45-.95.76-.95s.53.25.77.77,1.33,3.09,2.55,6,2.69,6.32,3.46,8.1c.87,2,1.5,2.32,2,2.4a5.35,5.35,0,0,0,.87.08c.34,0,.4.2.4.32S257.27,406.23,256.41,406.23Z" transform="translate(-181.81 -385.4)" fill="#fff"/>
      <path d="M331.89,406.31c-1.06,0-2.08,0-2.91-.06l-1.28,0-1.26,0c-.7,0-1.51.05-2.12.05-.41,0-.61-.12-.61-.35s.37-.29.51-.29a4.78,4.78,0,0,0,.94-.1c.46-.09.61-.55.73-1.42.13-1.11.13-3.24.13-5.7v-4.72c0-4.1,0-4.83-.06-5.69s-.22-1.28-1.09-1.46a5.25,5.25,0,0,0-1-.08c-.17,0-.54,0-.54-.32s.42-.31.65-.31c.85,0,1.79,0,2.55.05l1.31,0,1.31,0c.7,0,1.48,0,2.07,0,.31,0,.64,0,.64.31s-.36.32-.56.32a3.92,3.92,0,0,0-.76.08c-.64.12-.88.48-.93,1.46s-.06,1.59-.06,5.69v4.72c0,2.46,0,4.59.14,5.73.09.83.27,1.29,1,1.39a11.91,11.91,0,0,0,1.36.1c.41,0,.5.16.5.29S332.42,406.31,331.89,406.31Z" transform="translate(-181.81 -385.4)" fill="#fff"/>
      <path d="M345.82,406.31c-1.06,0-2.09,0-2.91-.06l-1.27,0-1.28,0c-.7,0-1.49.05-2.08.05-.16,0-.64,0-.64-.35s.36-.29.5-.29a4.37,4.37,0,0,0,.95-.1c.5-.1.62-.68.72-1.42.14-1.11.14-3.24.14-5.7v-2.36a.09.09,0,0,0-.09-.09H333a.31.31,0,0,1-.31-.31v-1a.31.31,0,0,1,.31-.31h6.84c.06,0,.09,0,.09-.11v-.56c0-4.1,0-4.83-.06-5.69s-.22-1.28-1.09-1.46a4.94,4.94,0,0,0-1-.08c-.17,0-.53,0-.53-.32s.41-.31.64-.31c.85,0,1.79,0,2.55.05l1.31,0,1.31,0c.69,0,1.48,0,2.07,0,.23,0,.64,0,.64.31s-.38.32-.56.32a3.92,3.92,0,0,0-.76.08c-.64.12-.88.48-.94,1.46s-.05,1.59-.05,5.69v4.72c0,2.46,0,4.59.13,5.73.1.83.28,1.29,1,1.39a11.91,11.91,0,0,0,1.36.1c.41,0,.5.16.5.29S346.35,406.31,345.82,406.31Z" transform="translate(-181.81 -385.4)" fill="#fff"/>
      <path d="M358.49,406.36c-1.85,0-3.23,0-4.35-.08l-1,0c-.69,0-1.28,0-1.77,0H351l-.91,0h0c-.56,0-1.13.05-1.61.05s-.53-.18-.53-.32.12-.32.45-.32a2.93,2.93,0,0,0,.81-.08c.44-.09.57-.47.65-1.13.1-1,.1-2.77.1-4.85v-4c0-3.47,0-4.1,0-4.82s-.23-1-1-1.17a4.69,4.69,0,0,0-.92-.08c-.43,0-.48-.22-.48-.31,0-.29.42-.29.61-.29l2.2,0,1.21,0H358c.31,0,.59-.07.79-.1l.2,0,.15-.05a.71.71,0,0,1,.23-.06c.09,0,.24,0,.24.29a1.12,1.12,0,0,1,0,.22,6.76,6.76,0,0,0-.16,1.26c0,.09,0,.26,0,.46,0,.39-.07.87-.1,1.06v0c0,.13-.11.4-.34.4s-.26-.24-.26-.37a2.14,2.14,0,0,0-.15-.8c-.17-.36-.32-.68-1.5-.79-.39-.05-3.21-.11-3.7-.11-.05,0-.08.05-.08.14v5.64c0,.17,0,.17.08.17,2.29,0,3.79,0,4.13-.05.54-.06.88-.1,1.08-.33l.16-.15c.09-.09.17-.17.27-.17a.29.29,0,0,1,.26.32c0,.09,0,.29-.08.76,0,.23-.06.53-.1.91s-.11,1.37-.11,1.52c0,.48-.17.59-.32.59a.25.25,0,0,1-.29-.27,2.32,2.32,0,0,0,0-.24,4.08,4.08,0,0,0-.06-.58c-.11-.37-.34-.74-1.25-.82-.41-.05-3.07-.11-3.69-.11,0,0-.06,0-.06.17v1.82c0,.23,0,.56,0,.93,0,.88,0,2,0,2.45,0,1.48.66,1.83,3.11,1.83a6,6,0,0,0,2.2-.29c.56-.25.82-.69,1-1.63.05-.22.11-.41.34-.41s.29.45.29.61a16.18,16.18,0,0,1-.32,2.54C359.65,406.36,359.38,406.36,358.49,406.36Z" transform="translate(-181.81 -385.4)" fill="#fff"/>
      <path d="M390.65,406.36c-1.75,0-3.1,0-4.24-.08l-.77,0c-.87,0-1.62,0-2.37,0h-.43l-.91,0h0c-.56,0-1.13.05-1.6.05s-.53-.2-.53-.32,0-.32.45-.32a2.93,2.93,0,0,0,.81-.08c.44-.09.56-.47.65-1.13.1-1,.1-2.77.1-4.85v-4c0-3.47,0-4.1,0-4.82s-.24-1-1-1.17a3,3,0,0,0-.75-.08c-.32,0-.49-.1-.49-.31s.38-.29.59-.29l2,0,1.22,0,1.33,0,2.08,0c.2,0,.58,0,.58.29s-.38.31-.5.31a5.88,5.88,0,0,0-.9.08c-.59.1-.77.36-.83,1.17s-.05,1.35-.05,4.82v4c0,2.88,0,4.33.48,4.74s1.28.46,3.1.46c1.31,0,2.15,0,2.7-.62a2.65,2.65,0,0,0,.58-1.32c0-.14,0-.41.34-.41.13,0,.29.1.29.58a17.45,17.45,0,0,1-.35,2.65C392.05,406.25,391.9,406.36,390.65,406.36Z" transform="translate(-181.81 -385.4)" fill="#fff"/>
      <path d="M403.3,406.31c-.94,0-1.89,0-2.65-.06l-1.17,0-1.14,0c-.66,0-1.41.05-1.94.05s-.53-.2-.53-.32.11-.32.45-.32a3.25,3.25,0,0,0,.81-.07c.44-.1.57-.5.64-1.14.11-1,.11-2.77.11-4.85v-9.16l-3.44.07c-1.36,0-1.9.19-2.22.67a2.38,2.38,0,0,0-.39.76c-.05.17-.12.35-.34.35s-.29-.34-.29-.46c0-.39.46-2.61.51-2.78s.12-.48.34-.48a.83.83,0,0,1,.31.08,3,3,0,0,0,.72.18,21.75,21.75,0,0,0,2.35.11H405a9.11,9.11,0,0,0,1.6-.11c.2,0,.34,0,.45-.07l.21,0c.26,0,.26.28.26.56s0,.73,0,1.26,0,1.19,0,1.5c0,.14-.05.45-.29.45s-.33-.24-.35-.52l0-.24c0-.37-.36-1.22-2.72-1.25l-2.9-.05v9.16c0,2.51,0,4,.13,4.87.09.68.24,1,.85,1.11a7.72,7.72,0,0,0,1.2.08c.31,0,.45.17.45.32S403.63,406.31,403.3,406.31Z" transform="translate(-181.81 -385.4)" fill="#fff"/>
      <path d="M429.49,406.31c-.93,0-1.86,0-2.61-.06l-1.12,0-1.18,0c-.66,0-1.42.05-1.93.05s-.59-.2-.59-.32.14-.32.45-.32a3.12,3.12,0,0,0,.84-.08c.43-.09.56-.47.65-1.13.1-1,.1-2.75.1-4.8v-1.75s0-.05-.06-.05h-5.83a.31.31,0,0,1-.31-.32v-.9a.31.31,0,0,1,.31-.31H424s.06,0,.06-.08v-.49c0-3.39,0-4.26-.05-5v0c-.05-.74-.23-1-1-1.17a4.3,4.3,0,0,0-.89-.08c-.4,0-.48-.17-.48-.31,0-.29.38-.29.59-.29l2.34,0,1.2,0,1.18,0,1.85,0c.21,0,.59,0,.59.29,0,.12-.07.31-.51.31a4.89,4.89,0,0,0-.68.08c-.56.1-.74.37-.8,1.17s-.05,1.35-.05,4.82v4c0,2.08,0,3.88.11,4.87.08.69.23,1,.87,1.11a7.64,7.64,0,0,0,1.2.08c.28,0,.45.16.45.32S430,406.31,429.49,406.31Z" transform="translate(-181.81 -385.4)" fill="#fff"/>
      <path d="M417.12,406.31c-.93,0-1.88,0-2.65-.06l-1.19,0-1.12,0c-.65,0-1.38.05-1.91.05s-.54-.2-.54-.32.12-.32.46-.32a3,3,0,0,0,.81-.08c.44-.09.56-.47.64-1.13.11-1,.11-2.77.11-4.85v-4c0-3.47,0-4.1,0-4.82s-.23-1-1-1.17a4.77,4.77,0,0,0-.92-.08c-.43,0-.48-.22-.48-.31,0-.29.41-.29.59-.29l2.27,0,1.19,0,1.2,0,1.93,0c.19,0,.57,0,.57.29s-.17.31-.51.31a4,4,0,0,0-.66.08c-.58.1-.77.36-.82,1.17s-.06,1.55-.06,5v3.9c0,2.46,0,3.94.14,4.82.08.68.23,1,.85,1.11a7.67,7.67,0,0,0,1.19.08c.31,0,.45.17.45.32S417.62,406.31,417.12,406.31Z" transform="translate(-181.81 -385.4)" fill="#fff"/>
      <path d="M379.37,406.31c-.83,0-2.55,0-4.54-.06h-.12c-.39,0-.65,0-.65-.26s.11-.29.36-.32a.2.2,0,0,0,.15-.11.38.38,0,0,0,0-.29l-1.83-4.59c0-.1-.08-.12-.17-.12H369.3a.22.22,0,0,1-.2-.1.2.2,0,0,1,0-.21l.27-.82a.41.41,0,0,1,.31-.27h2.46v0l-2.24-5.83,0-.11,0,.11v0l-2.9,7.36-1.26,3.06a4,4,0,0,0-.34,1.37c0,.29.1.56.86.56h.35c.29,0,.42.11.42.32s-.31.32-.45.32c-.39,0-.87,0-1.34,0s-.92,0-1.29,0l-.47,0c-.53,0-1.41.07-2.27.07-.17,0-.5,0-.5-.32a.31.31,0,0,1,.34-.32h.7c1.06-.16,1.44-.89,1.89-2l6.17-14.36c.26-.61.47-1,.77-1s.52.26.77.77,1.23,2.87,2.35,5.51c1.33,3.13,2.84,6.69,3.66,8.55s1.5,2.32,2,2.4a4.92,4.92,0,0,0,.87.08c.35,0,.4.2.4.32C380.47,406.27,380.23,406.31,379.37,406.31Z" transform="translate(-181.81 -385.4)" fill="#fff"/>
    </g>
  </g>
</svg>
