<svg id="Layer_1" data-name="Layer 1" xmlns="http://www.w3.org/2000/svg" viewBox="0 0 373.67 57.49">
  <title>logo</title>
  <g>
    <g>
      <g>
        <path d="M11.4,24.66C3.57,24.66,0,18.91,0,13.57S3.65,2.47,11.68,2.47c7.05,0,11.43,4.06,11.43,10.59A11.68,11.68,0,0,1,20,21.29,11.6,11.6,0,0,1,11.4,24.66ZM10.86,4C8.31,4,4,5.11,4,12.7c0,6.12,3.52,10.4,8.55,10.4,1.93,0,6.44-.88,6.44-9C19,8.14,15.67,4,10.86,4Z" fill="#fff"/>
        <path d="M44.3,24.27H41.94a5.52,5.52,0,0,1-2.74-.49c-1-.53-1.92-1.56-3.39-3.54-.55-.72-1.11-1.53-1.56-2.18s-.64-.91-.77-1.07a.49.49,0,0,0-.39-.14l-2.23-.06c-.07,0-.11,0-.11.12v.34c0,1.89,0,4,.14,5.07.08.68.18,1.1.89,1.2a9.8,9.8,0,0,0,1.2.08.36.36,0,0,1,.38.34c0,.1,0,.33-.58.33-1,0-2.18,0-3-.07l-.85,0-1,0c-.64,0-1.43.06-2,.06s-.56-.21-.56-.33.12-.34.47-.34a3.76,3.76,0,0,0,.85-.08c.46-.1.59-.5.68-1.2.1-1,.1-2.89.1-5.07V13c0-3.64,0-4.3,0-5s-.24-1-1-1.22a4.22,4.22,0,0,0-1-.09c-.32,0-.5-.12-.5-.33s.43-.3.62-.3c.81,0,1.7,0,2.41,0l1,0,2.1,0,1.75,0a8.77,8.77,0,0,1,4.73,1,4.23,4.23,0,0,1,1.78,3.35c0,1.79-1,3.37-3.4,5.29l.29.35c2,2.53,3.67,4.53,5.08,5.94a4.67,4.67,0,0,0,2.54,1.54h.06a2.52,2.52,0,0,0,.58.05.37.37,0,0,1,.39.34C44.86,24.27,44.47,24.27,44.3,24.27ZM32.36,7.43a7.68,7.68,0,0,0-1.45.09c-.12,0-.16.08-.16.26v7.11c0,.22,0,.28.18.35a6.8,6.8,0,0,0,1.85.21,2.41,2.41,0,0,0,1.69-.37A4,4,0,0,0,36,11.6C36,8.52,34.06,7.43,32.36,7.43Z" fill="#fff"/>
        <path d="M56,24.32c-1.82,0-3.23,0-4.44-.09h-.91c-.87,0-1.62,0-2.37,0h-.46l-.95,0-.36,0c-.46,0-.94,0-1.35,0s-.56-.21-.56-.33.13-.34.48-.34a3.82,3.82,0,0,0,.85-.08c.45-.1.58-.5.67-1.2.11-1,.11-2.89.11-5.07V13c0-3.64,0-4.3,0-5s-.24-1-1-1.22a2.72,2.72,0,0,0-.79-.09c-.42,0-.5-.18-.5-.33s.4-.3.59-.3c.67,0,1.46,0,2.15,0l1.27,0,1.45,0L52,6c.2,0,.61,0,.61.3s-.18.33-.52.33a5.61,5.61,0,0,0-1,.09c-.61.1-.8.38-.86,1.22s-.06,1.41-.06,5v4.22c0,3,0,4.54.51,5s1.33.48,3.24.48c1.38,0,2.26,0,2.84-.65a2.77,2.77,0,0,0,.59-1.38c0-.14.05-.44.36-.44.14,0,.3.1.3.61a18.44,18.44,0,0,1-.37,2.78C57.48,24.21,57.33,24.32,56,24.32Z" fill="#fff"/>
        <path d="M97.17,24.55A1.52,1.52,0,0,1,96.1,24c-1.44-1.34-4.48-4.24-7.22-6.89-1.74-1.66-3.44-3.46-4.56-4.64-.56-.59-1-1-1.17-1.21l.27,9.65c.06,2,.42,2.37.79,2.51a4.36,4.36,0,0,0,1.27.16c.37,0,.5.18.5.34,0,.33-.46.33-.64.33-1,0-1.92,0-2.5-.07l-.7,0-.43,0c-.5,0-1.35.07-2.24.07-.26,0-.64,0-.64-.33s.2-.34.47-.34a5,5,0,0,0,1.1-.11c.58-.15.67-.74.7-2.82l.23-14.16c0-.53.2-.89.5-.89s.63.31,1,.71l.1.1.34.34c1,1.06,4.2,4.27,7.28,7.27,1,1,2.45,2.46,3.63,3.66.83.84,1.49,1.51,1.68,1.69h0L95.63,8.84c0-1.49-.27-1.83-.8-2a3.94,3.94,0,0,0-1.26-.14c-.39,0-.47-.18-.47-.33s.42-.3.66-.3h0c.78,0,1.57,0,2.2,0l.94,0,.48,0c.44,0,1.13,0,1.94,0,.25,0,.64,0,.64.3s-.13.33-.5.33a2.23,2.23,0,0,0-.74.09c-.63.19-.81.59-.84,1.89l-.28,15.06C97.64,24.33,97.39,24.55,97.17,24.55Z" fill="#fff"/>
        <path d="M109.14,24.46c-.67,0-1.44,0-2.19-.09l-.76-.05c-1-.09-1.91-.14-2.5-.14h-.45l-.95,0-.35,0c-.47,0-1,0-1.36,0s-.56-.21-.56-.33.12-.34.47-.34a3.76,3.76,0,0,0,.85-.08c.46-.1.59-.5.68-1.2.11-1,.11-2.89.11-5.07V13c0-3.64,0-4.3,0-5s-.24-1-1-1.22a4.26,4.26,0,0,0-1-.09c-.31,0-.49-.12-.49-.33s.43-.3.62-.3c.76,0,1.58,0,2.31,0l1.28,0,1.41,0c.78,0,1.75,0,2.6,0,3.08,0,7.29,0,10,2.75a8.38,8.38,0,0,1,2.35,6.13,9.41,9.41,0,0,1-2.72,6.71C116.64,22.48,114.12,24.46,109.14,24.46Zm-1.77-17a5.2,5.2,0,0,0-1.47.16.36.36,0,0,0-.28.41c0,.82,0,2.77,0,4.67v3c0,2.45,0,4.34.06,4.83a4.82,4.82,0,0,0,.26,1.64c.31.45,1.3.93,3.17.93a7.64,7.64,0,0,0,5.34-1.61c1.4-1.16,2.08-3.07,2.08-5.87a7.65,7.65,0,0,0-2.27-5.9A10,10,0,0,0,107.37,7.43Z" fill="#fff"/>
        <path d="M132.1,24.57c-7,0-10.2-4.89-10.2-9.43s3.27-9.43,10.45-9.43c6.28,0,10.19,3.45,10.19,9C142.54,20.52,138.25,24.57,132.1,24.57Zm-.48-17.44c-2.21,0-5.91.94-5.91,7.28,0,5.13,3,8.72,7.4,8.72,1.68,0,5.6-.74,5.6-7.54C138.71,10.6,135.79,7.13,131.62,7.13Z" fill="#fff"/>
        <path d="M78.1,24.28c-.86,0-2.67,0-4.75-.06h-.12c-.41,0-.68,0-.68-.28s.11-.3.37-.32a.28.28,0,0,0,.16-.13.32.32,0,0,0,0-.3l-1.91-4.81c0-.1-.09-.11-.18-.11H67.58a.25.25,0,0,1-.25-.34l.28-.86a.43.43,0,0,1,.4-.28H70.5s0,0,0,0l-2.35-6.1,0-.12s0,.08-.05.11v0l-3,7.7L63.7,21.59A4.22,4.22,0,0,0,63.35,23c0,.31.11.6.9.6h.36c.31,0,.45.1.45.32s-.33.34-.47.34c-.42,0-.92,0-1.4-.05s-1,0-1.36,0l-.5,0c-.54,0-1.47.07-2.36.07-.19,0-.53,0-.53-.34a.32.32,0,0,1,.36-.32l.36,0,.37,0c1-.15,1.43-.75,2-2L68,6.49c.27-.63.48-1,.8-1s.55.27.8.81,1.4,3.23,2.68,6.24,2.81,6.62,3.62,8.48c.91,2.06,1.57,2.42,2,2.51a6.1,6.1,0,0,0,.92.09c.35,0,.41.2.41.32C79.25,24.24,79,24.28,78.1,24.28Z" fill="#fff"/>
      </g>
      <g>
        <path d="M131.06,35.22a2.6,2.6,0,1,1-2.58,2.59,2.56,2.56,0,0,1,2.58-2.59Zm0,.4a2.2,2.2,0,1,0,2.09,2.2,2.13,2.13,0,0,0-2.09-2.2Zm-.48,3.7h-.46V36.43a5.71,5.71,0,0,1,.82-.07,1.53,1.53,0,0,1,.9.22.71.71,0,0,1,.26.6.72.72,0,0,1-.57.7v0c.26.05.43.28.49.71a2.62,2.62,0,0,0,.18.71h-.48a2.14,2.14,0,0,1-.2-.73.54.54,0,0,0-.62-.52h-.32Zm0-1.6h.33c.38,0,.71-.14.71-.5s-.19-.51-.71-.51a2.19,2.19,0,0,0-.33,0Z" fill="#fff"/>
        <path d="M23.8,55c-1.1,0-2.18,0-3-.06l-1.34,0-1.32,0c-.74,0-1.58.06-2.22.06-.42,0-.64-.13-.64-.37s.39-.3.53-.3a4.45,4.45,0,0,0,1-.11c.48-.1.63-.57.76-1.48.14-1.17.14-3.39.14-6v-5c0-4.28,0-5-.06-5.95s-.24-1.34-1.15-1.53a5.56,5.56,0,0,0-1.07-.08c-.18,0-.56,0-.56-.34s.43-.33.67-.33c.89,0,1.88,0,2.68.06l1.36,0,1.37,0c.73,0,1.56,0,2.17,0,.33,0,.68,0,.68.33s-.39.34-.59.34a4.3,4.3,0,0,0-.8.08c-.67.12-.92.51-1,1.53s-.05,1.67-.05,5.95v5c0,2.58,0,4.8.14,6,.09.86.28,1.35,1,1.45a13,13,0,0,0,1.42.11c.43,0,.53.16.53.3S24.36,55,23.8,55Z" fill="#fff"/>
        <path d="M38.39,55c-1.11,0-2.19,0-3-.06l-1.33,0-1.34,0c-.73,0-1.56.06-2.18.06-.16,0-.66,0-.66-.37s.38-.3.52-.3a4.71,4.71,0,0,0,1-.11c.52-.1.64-.71.75-1.48.14-1.17.14-3.39.14-6V44.26a.09.09,0,0,0-.09-.09H25a.32.32,0,0,1-.32-.32v-1A.32.32,0,0,1,25,42.5h7.16q.09,0,.09-.12v-.59c0-4.28,0-5-.06-5.95S32,34.5,31,34.31A5.41,5.41,0,0,0,30,34.23c-.18,0-.55,0-.55-.34s.43-.33.66-.33c.89,0,1.88,0,2.67.06l1.38,0,1.36,0c.73,0,1.56,0,2.18,0,.23,0,.67,0,.67.33s-.39.34-.59.34a4.3,4.3,0,0,0-.8.08c-.67.12-.92.51-1,1.53s-.06,1.67-.06,5.95v5c0,2.58,0,4.8.14,6,.09.86.29,1.35,1,1.45a13.16,13.16,0,0,0,1.42.11c.44,0,.53.16.53.3S39,55,38.39,55Z" fill="#fff"/>
        <path d="M51.66,55c-1.94,0-3.39,0-4.56-.09l-1,0-1.86,0h-.45l-1,0h0c-.58,0-1.19.06-1.69.06s-.55-.19-.55-.34.12-.33.47-.33a3.3,3.3,0,0,0,.85-.08c.46-.1.59-.5.67-1.19.11-1,.11-2.9.11-5.08V43.73c0-3.64,0-4.3,0-5s-.25-1-1-1.22a4.23,4.23,0,0,0-1-.09c-.45,0-.5-.23-.5-.33,0-.3.44-.3.64-.3l2.3,0,1.27,0h1.19l3.77,0c1,0,1.64,0,1.78,0,.32,0,.62-.07.83-.1l.2,0,.16-.06a.82.82,0,0,1,.25-.06c.09,0,.24,0,.24.3a1.29,1.29,0,0,1,0,.24,7.15,7.15,0,0,0-.16,1.31c0,.1,0,.28,0,.49,0,.4-.07.91-.11,1.1v0c0,.14-.11.42-.35.42s-.28-.25-.28-.39a2.17,2.17,0,0,0-.16-.84c-.17-.38-.33-.71-1.56-.83-.42-.06-3.36-.11-3.88-.11,0,0-.08,0-.08.15v5.9c0,.17,0,.17.08.17,2.4,0,4,0,4.33-.05.56,0,.92-.1,1.12-.34l.17-.16c.1-.1.18-.18.29-.18a.3.3,0,0,1,.27.33c0,.1,0,.31-.08.8,0,.25-.07.55-.11,1s-.11,1.43-.11,1.59c0,.51-.19.61-.34.61s-.3-.17-.3-.27,0-.17,0-.26,0-.39-.06-.6c-.12-.4-.36-.78-1.31-.86C49.64,46,46.86,46,46.21,46c0,0-.06,0-.06.17V48c0,.24,0,.59,0,1,0,.92,0,2.07,0,2.57.05,1.54.69,1.91,3.26,1.91a6.53,6.53,0,0,0,2.3-.3c.58-.26.85-.73,1-1.71.05-.23.12-.43.36-.43s.31.47.31.64a15.48,15.48,0,0,1-.35,2.66C52.87,55,52.59,55,51.66,55Z" fill="#fff"/>
        <path d="M85.32,55c-1.83,0-3.25,0-4.44-.09h-.8c-.91,0-1.7,0-2.48,0h-.46l-1,0h0c-.58,0-1.18.06-1.67.06s-.56-.21-.56-.34,0-.33.47-.33a3.34,3.34,0,0,0,.86-.08c.45-.1.58-.5.67-1.19C76,52,76,50.13,76,48V43.73c0-3.64,0-4.3,0-5s-.24-1-1-1.22a3.24,3.24,0,0,0-.79-.09c-.34,0-.5-.11-.5-.33s.39-.3.61-.3l2.12,0,1.28,0,1.4,0,2.17,0c.22,0,.61,0,.61.3s-.4.33-.53.33a5.32,5.32,0,0,0-.94.09c-.61.1-.81.37-.86,1.22s-.06,1.41-.06,5V48c0,3,0,4.54.5,5s1.34.49,3.24.49c1.38,0,2.27,0,2.84-.65a2.73,2.73,0,0,0,.6-1.39c0-.14,0-.43.36-.43.13,0,.3.11.3.61A18,18,0,0,1,87,54.31C86.78,54.9,86.63,55,85.32,55Z" fill="#fff"/>
        <path d="M98.56,55c-1,0-2,0-2.76-.06l-1.23,0-1.2,0c-.69,0-1.47.06-2,.06s-.56-.21-.56-.34.13-.33.48-.33a2.9,2.9,0,0,0,.84-.08c.46-.1.6-.52.68-1.19.11-1,.11-2.9.11-5.08V38.36l-3.6.08c-1.42,0-2,.2-2.33.7a2.5,2.5,0,0,0-.4.8c-.06.18-.13.35-.36.35s-.3-.35-.3-.47c0-.41.48-2.73.53-2.91s.13-.51.36-.51a1.15,1.15,0,0,1,.32.08,3.09,3.09,0,0,0,.76.2,23.77,23.77,0,0,0,2.46.11h10a9.91,9.91,0,0,0,1.67-.11l.47-.08.22,0c.27,0,.27.3.27.58s0,.77,0,1.33,0,1.25,0,1.57c0,.15,0,.47-.31.47s-.33-.24-.35-.55l0-.25c0-.39-.38-1.28-2.85-1.31l-3,0V48c0,2.63,0,4.2.13,5.1.1.71.25,1.07.89,1.17a8.52,8.52,0,0,0,1.26.08c.32,0,.47.17.47.33S98.91,55,98.56,55Z" fill="#fff"/>
        <path d="M126,55c-1,0-1.94,0-2.72-.06l-1.18,0-1.24,0c-.69,0-1.48.06-2,.06s-.61-.21-.61-.34.15-.33.47-.33a3.28,3.28,0,0,0,.87-.08c.46-.1.59-.5.68-1.19.11-1,.11-2.87.11-5V46.17a.06.06,0,0,0-.06-.06h-6.1a.32.32,0,0,1-.33-.32v-.94a.33.33,0,0,1,.33-.33h6.1s.06,0,.06-.09v-.5c0-3.56,0-4.47,0-5.21v0c-.06-.78-.25-1-1-1.22a4.16,4.16,0,0,0-.94-.09c-.42,0-.5-.18-.5-.33s.4-.3.62-.3l2.45,0c.53,0,1,0,1.25,0l1.24,0,1.94,0c.21,0,.61,0,.61.3,0,.12-.06.33-.52.33a4.18,4.18,0,0,0-.72.09c-.59.1-.78.37-.84,1.22s-.06,1.41-.06,5V48c0,2.18,0,4.06.12,5.1.09.72.24,1.07.92,1.17a8.3,8.3,0,0,0,1.25.08c.29,0,.47.17.47.33S126.51,55,126,55Z" fill="#fff"/>
        <path d="M113,55c-1,0-2,0-2.77-.06l-1.25,0-1.18,0c-.67,0-1.43.06-2,.06s-.56-.21-.56-.34.13-.33.47-.33a3.34,3.34,0,0,0,.86-.08c.45-.1.58-.5.67-1.19.11-1,.11-2.9.11-5.08V43.73c0-3.64,0-4.3,0-5s-.24-1-1-1.22a4.23,4.23,0,0,0-1-.09c-.45,0-.5-.23-.5-.33,0-.3.43-.3.61-.3l2.38,0,1.25,0,1.25,0,2,0c.19,0,.59,0,.59.3s-.18.33-.53.33a3.43,3.43,0,0,0-.69.09c-.61.1-.81.37-.86,1.22s-.06,1.61-.06,5.25V48c0,2.58,0,4.13.14,5,.09.71.25,1.07.89,1.17a8.38,8.38,0,0,0,1.25.08c.33,0,.47.17.47.33S113.56,55,113,55Z" fill="#fff"/>
        <path d="M73.51,55c-.86,0-2.67,0-4.75-.06h-.12c-.41,0-.68,0-.68-.27s.11-.3.38-.33a.2.2,0,0,0,.14-.12.34.34,0,0,0,0-.31l-1.9-4.8a.18.18,0,0,0-.19-.13H63a.25.25,0,0,1-.21-.09.27.27,0,0,1,0-.23l.28-.85a.43.43,0,0,1,.33-.29h2.58a.1.1,0,0,0,0,0l-2.35-6.1a.53.53,0,0,0,0-.12.42.42,0,0,0,0,.12v0l-3,7.7-1.33,3.2a4.6,4.6,0,0,0-.35,1.43c0,.31.11.6.9.6H60c.3,0,.44.1.44.33S60.14,55,60,55c-.41,0-.92,0-1.4,0s-1,0-1.36,0l-.49,0c-.56,0-1.47.07-2.37.07-.18,0-.52,0-.52-.34a.32.32,0,0,1,.35-.33h.73c1.11-.17,1.5-.94,2-2.07l6.46-15c.27-.64.48-1,.81-1s.55.28.8.81,1.29,3,2.46,5.77c1.4,3.28,3,7,3.83,9s1.57,2.42,2,2.52a5.42,5.42,0,0,0,.91.08c.37,0,.42.21.42.33C74.66,54.92,74.42,55,73.51,55Z" fill="#fff"/>
      </g>
    </g>
    <g>
      <path d="M190.53,12.6A7.81,7.81,0,0,0,185,10.18a7.56,7.56,0,0,0,0,15.12,8,8,0,0,0,5.52-2.42V25.4a9.38,9.38,0,0,1-5.45,1.79,9.45,9.45,0,1,1,0-18.9,8.81,8.81,0,0,1,5.45,1.79Z" fill="#fff"/>
      <path d="M203.88,26.88h-1.94V25.3h0A4.8,4.8,0,0,1,198,27.19c-3.34,0-5.45-2.83-5.45-6s2.06-6,5.47-6a5,5,0,0,1,3.91,1.94h0V15.49h1.94Zm-9.38-5.82c0,2.23,1.31,4.34,3.74,4.34s3.8-2,3.8-4.32A3.81,3.81,0,0,0,198.21,17,3.87,3.87,0,0,0,194.5,21.06Z" fill="#fff"/>
      <path d="M211.58,18.13A1.8,1.8,0,0,0,210,17a1.38,1.38,0,0,0-1.4,1.27c0,1,1.31,1.42,2.64,2s2.64,1.36,2.64,3.27a3.72,3.72,0,0,1-3.85,3.71,4.1,4.1,0,0,1-4-2.88l1.73-.73c.48,1.07,1,1.82,2.32,1.82a1.74,1.74,0,0,0,1.84-1.75c0-2.54-5.13-1.67-5.13-5.26a3.24,3.24,0,0,1,3.39-3.22,3.44,3.44,0,0,1,3,2.11Z" fill="#fff"/>
      <path d="M218.2,26.88h-1.94v-9.6h-1.19V15.49h1.19v-4.1h1.94v4.1h2v1.79h-2Z" fill="#fff"/>
      <path d="M231.2,21.69,229,26.88h-2.23L235.2,7.73l8.22,19.15h-2.26L239,21.69Zm4-9.21L232,19.8h6.18Z" fill="#fff"/>
      <path d="M253.37,25.3h-.05a4.83,4.83,0,0,1-3.92,1.89c-3.35,0-5.46-2.83-5.46-6s2.06-6,5.48-6a4.92,4.92,0,0,1,3.9,1.94h.05V6.88h1.94v20h-1.94Zm-7.44-4.24c0,2.23,1.31,4.34,3.73,4.34s3.81-2,3.81-4.32A3.81,3.81,0,0,0,249.64,17,3.87,3.87,0,0,0,245.93,21.06Z" fill="#fff"/>
      <path d="M262.19,23.14l3.39-7.65h2.18l-5.57,12.14-5.6-12.14h2.2Z" fill="#fff"/>
      <path d="M279.53,26.88h-1.94V25.3h0a4.8,4.8,0,0,1-3.93,1.89c-3.34,0-5.45-2.83-5.45-6s2.06-6,5.48-6a4.94,4.94,0,0,1,3.9,1.94h0V15.49h1.94Zm-9.37-5.82c0,2.23,1.3,4.34,3.73,4.34s3.8-2,3.8-4.32A3.81,3.81,0,0,0,273.86,17,3.86,3.86,0,0,0,270.16,21.06Z" fill="#fff"/>
      <path d="M284.57,16.87h.05a3.82,3.82,0,0,1,3.24-1.7c3.16,0,3.88,2.28,3.88,5v6.76H289.8V20.45c0-1.84-.14-3.49-2.4-3.49-2.66,0-2.83,2.48-2.83,4.51v5.41h-1.94V15.49h1.94Z" fill="#fff"/>
      <path d="M297,26.88H295v-9.6h-1.18V15.49H295v-4.1H297v4.1h2v1.79h-2Z" fill="#fff"/>
      <path d="M310.66,26.88h-1.94V25.3h0a4.8,4.8,0,0,1-3.93,1.89c-3.34,0-5.45-2.83-5.45-6s2.06-6,5.47-6a5,5,0,0,1,3.91,1.94h0V15.49h1.94Zm-9.38-5.82c0,2.23,1.31,4.34,3.74,4.34s3.8-2,3.8-4.32A3.81,3.81,0,0,0,305,17,3.87,3.87,0,0,0,301.28,21.06Z" fill="#fff"/>
      <path d="M324,26.32c0,1.82,0,3.39-1.16,4.89a5.5,5.5,0,0,1-4.41,2c-3.17,0-5.52-2-5.6-5.23h1.94a3.38,3.38,0,0,0,3.64,3.44c3,0,3.65-2.2,3.65-4.77V25.3h0a5,5,0,0,1-3.95,1.89c-3.32,0-5.43-2.79-5.43-6s2.13-6.06,5.5-6.06a4.74,4.74,0,0,1,3.88,1.94h0V15.49H324Zm-9.37-5.26c0,2.23,1.3,4.34,3.73,4.34s3.8-2,3.8-4.32A3.81,3.81,0,0,0,318.36,17,3.86,3.86,0,0,0,314.66,21.06Z" fill="#fff"/>
      <path d="M328.29,21.59A3.7,3.7,0,0,0,332,25.4a3.91,3.91,0,0,0,3.47-2.35l1.65.94a5.74,5.74,0,0,1-5.26,3.2c-3.39,0-5.57-2.59-5.57-5.86s2-6.16,5.52-6.16,5.6,3,5.4,6.42ZM335.2,20a3.49,3.49,0,0,0-3.34-3,3.6,3.6,0,0,0-3.47,3Z" fill="#fff"/>
    </g>
    <rect x="158.55" width="1.07" height="57.49" fill="#fff"/>
    <g>
      <path d="M184.89,37.69c0,.42-.19,1.78-.31,2.71l-.58.05a4.07,4.07,0,0,0-.3-1.57c-.19-.37-.5-.51-1.68-.51h-1.1c-.59,0-.68.12-.8.72l-.72,3.83H181c1.5,0,1.57-.14,2.06-1.28h.56l-.68,3.5h-.58c0-1.29-.07-1.43-1.55-1.43h-1.6l-.57,3.13c-.27,1.4-.13,1.54,1.43,1.66l-.14.54h-5.06l.14-.54c1.25-.12,1.4-.28,1.67-1.66L178,39.91c.26-1.44.19-1.56-1.18-1.68l.13-.54Z" fill="#fff"/>
      <path d="M184.44,46.44a5.25,5.25,0,0,1,2.62-4.68,4.69,4.69,0,0,1,2.16-.63c1.62,0,2.5,1.09,2.5,2.77a5.56,5.56,0,0,1-1.87,4.23A4.64,4.64,0,0,1,187,49.25C185,49.25,184.44,47.8,184.44,46.44Zm3.67,2c.77-.31,1.63-2.17,1.63-4.55,0-1.38-.51-2-1.17-2a1.32,1.32,0,0,0-.51.1c-.54.27-1.64,1.72-1.64,4.54,0,1.31.54,2,1.2,2A1.19,1.19,0,0,0,188.11,48.41Z" fill="#fff"/>
      <path d="M195.78,44c.86-1.61,1.8-2.84,2.54-2.84a1,1,0,0,1,.8.46.85.85,0,0,1-.05,1,2.47,2.47,0,0,1-.56.67c-.16.1-.3.12-.42,0a1,1,0,0,0-.67-.33c-.17,0-.38.11-.75.61a8.31,8.31,0,0,0-1.08,2c-.25,1-.51,2.34-.69,3.36a11.73,11.73,0,0,0-1.71.35l-.14-.14c.43-1.84.86-3.77,1.21-5.64.1-.56.1-.79,0-.79a3,3,0,0,0-1.12.7l-.26-.45a5.42,5.42,0,0,1,2.73-1.79c.49,0,.59.67.31,2l-.17.81Z" fill="#fff"/>
      <path d="M208.38,42.13l-1.66.09-.95,4.55c-.17.8-.09,1,.09,1a3.94,3.94,0,0,0,1.49-.94l.26.42a5.19,5.19,0,0,1-3.08,2c-.56,0-.93-.57-.53-2.43l1-4.6h-1.26l-.08-.18.47-.61h1l.38-1.63,1.79-1.2.19.15-.61,2.68h2Z" fill="#fff"/>
      <path d="M216.8,47.49A5,5,0,0,1,214,49.25c-.52,0-.75-.47-.44-1.87l.9-3.81c.17-.76.08-1-.16-1-.65,0-2.23,1.54-3.08,2.94-.21.85-.53,2.52-.7,3.43a12.33,12.33,0,0,0-1.75.36l-.12-.14c.73-3.34,1.43-6.68,2.11-10.32.16-.86,0-.91-.7-.95h-.42l.13-.53a20.05,20.05,0,0,0,3-.61c.21,0,.25.14.14.61l-1.45,6.88h0a10.48,10.48,0,0,1,2.84-2.59,3.1,3.1,0,0,1,1.35-.46c.44,0,1.08.28.58,2.47L215.4,47c-.11.53-.07.68,0,.68a2.82,2.82,0,0,0,1.08-.7Z" fill="#fff"/>
      <path d="M223.92,47.15c-1.56,1.63-2.89,2.1-4,2.1s-2.08-.52-2.08-2.59A5.78,5.78,0,0,1,220,42.2a4.93,4.93,0,0,1,2.69-1.07,1.52,1.52,0,0,1,1.72,1.47c0,1.79-2.8,2.68-4.54,3.14,0,.19,0,.35,0,.49,0,.91.31,1.76,1.26,1.76a4.13,4.13,0,0,0,2.53-1.31Zm-2.59-5a4.27,4.27,0,0,0-1.44,3c2.1-.62,2.77-1.37,2.77-2.26,0-.67-.4-1-.74-1A1,1,0,0,0,221.33,42.1Z" fill="#fff"/>
      <path d="M234.94,37.69c3.66,0,5.87,1.48,5.87,4.81a6,6,0,0,1-2.89,5.28,10.17,10.17,0,0,1-5.5,1.26h-4l.14-.54c1.31-.12,1.47-.33,1.71-1.63l1.34-7c.26-1.38.15-1.54-1.21-1.68l.14-.54Zm-2.67,9c-.18.89-.13,1.22.17,1.43a1.79,1.79,0,0,0,1,.25c3.12,0,5.1-2.73,5.1-6,0-2.29-1.21-4-3.63-4a1.7,1.7,0,0,0-1,.19c-.15.13-.24.34-.35.9Z" fill="#fff"/>
      <path d="M245.64,47.38a5.43,5.43,0,0,1-2.91,1.87c-.46,0-.79-.33-.42-1.83l1-4.12c.11-.42.13-.59,0-.59a3.56,3.56,0,0,0-1.1.65l-.25-.44a6.25,6.25,0,0,1,3-1.8c.47,0,.52.64.27,1.61l-1.06,4.34c-.11.47-.07.64,0,.64a3.25,3.25,0,0,0,1.16-.75Zm.29-8.73a1.2,1.2,0,0,1-1.17,1.22.84.84,0,0,1-.89-.94,1.21,1.21,0,0,1,1.19-1.23A.86.86,0,0,1,245.93,38.65Z" fill="#fff"/>
      <path d="M246.37,47.91A1.14,1.14,0,0,1,247,47c.26-.16.4-.13.54,0a2.73,2.73,0,0,0,1.89,1.23.84.84,0,0,0,.93-.79c0-.39-.23-.72-1.09-1.37s-1.68-1.2-1.68-2.24a2.31,2.31,0,0,1,1-1.85,3.78,3.78,0,0,1,2.09-.88c.87,0,1.52.55,1.52,1.11a1.09,1.09,0,0,1-.54.87c-.2.12-.35.11-.46-.07a2,2,0,0,0-1.5-.93.73.73,0,0,0-.77.76c0,.52.54,1,1.2,1.43,1,.7,1.62,1.3,1.62,2.17,0,1.49-1.93,2.78-3.4,2.78C247.4,49.25,246.39,48.64,246.37,47.91Z" fill="#fff"/>
      <path d="M261.18,47.45c-1.21,1.28-2.24,1.8-2.81,1.8s-.76-.4-.42-1.85c.3-1.24.58-2.49.86-3.73.23-.93.13-1.12-.1-1.14-.63,0-2.38,1.95-3.08,3.17-.23.91-.51,2.08-.72,3.19a10.76,10.76,0,0,0-1.73.35l-.13-.14c.46-1.82.93-3.78,1.35-5.78.12-.54.11-.68,0-.68a3.46,3.46,0,0,0-1.12.73l-.22-.49a5.13,5.13,0,0,1,2.78-1.75c.45,0,.63.56.28,2.12l-.26,1.1h0a11.8,11.8,0,0,1,2.78-2.73,2.69,2.69,0,0,1,1.35-.49c.53,0,1.07.32.53,2.63l-.77,3.32c-.11.44-.07.62.05.62a2.81,2.81,0,0,0,1.1-.74Z" fill="#fff"/>
      <path d="M268.33,47.15c-1.55,1.63-2.88,2.1-3.95,2.1s-2.08-.52-2.08-2.59a5.77,5.77,0,0,1,2.06-4.46,5,5,0,0,1,2.7-1.07,1.51,1.51,0,0,1,1.71,1.47c0,1.79-2.8,2.68-4.53,3.14a4.44,4.44,0,0,0,0,.49c0,.91.32,1.76,1.26,1.76A4.15,4.15,0,0,0,268,46.68Zm-2.59-5a4.23,4.23,0,0,0-1.43,3c2.1-.62,2.76-1.37,2.76-2.26,0-.67-.4-1-.73-1A1.08,1.08,0,0,0,265.74,42.1Z" fill="#fff"/>
      <path d="M273.64,47.49c.85-1.28,2.06-3.12,2.06-4.36a2.48,2.48,0,0,0-.24-.89.72.72,0,0,1,.05-.56,1,1,0,0,1,.87-.55c.42,0,.83.39.84,1.11a4,4,0,0,1-.66,1.92c-.79,1.33-2,3.08-3,4.46a49.82,49.82,0,0,1-3.24,4.24l-2.13.52-.14-.43a15,15,0,0,0,4-3.52,38.65,38.65,0,0,0-.59-5.85c-.12-.7-.25-.89-.37-.89s-.49.32-1,1l-.35-.46c.68-1.08,1.64-2,2.36-2s.91.63,1.1,2.24c.18,1.4.28,2.65.37,4.12Z" fill="#fff"/>
      <path d="M296.72,38.23c-1.4.14-1.47.21-1.66,1.54-.39,2.55-.63,4.57-.91,6.86-.21,1.64-.13,1.75,1.24,1.87l-.12.54h-4.78l.14-.54c1.19-.12,1.29-.24,1.56-1.87.36-2.52.73-4.69,1.1-7h-.07l-5.43,9.35h-.49c-.5-3-1-5.86-1.62-9.24h-.06l-1.22,4.43a27.09,27.09,0,0,0-.79,3.23c-.12.79.11,1,1.28,1.14l-.12.54h-4l.14-.54c.94-.09,1.31-.33,1.62-1.14.23-.59.55-1.47,1.11-3.34l1.15-3.81c.48-1.61.39-1.84-1.19-2l.18-.54h3.29c.54,2.66,1.1,5.14,1.68,8l4.9-8h3.22Z" fill="#fff"/>
      <path d="M302.65,47.15c-1.56,1.63-2.89,2.1-4,2.1s-2.08-.52-2.08-2.59a5.78,5.78,0,0,1,2.07-4.46,5,5,0,0,1,2.69-1.07,1.52,1.52,0,0,1,1.72,1.47c0,1.79-2.8,2.68-4.54,3.14,0,.19,0,.35,0,.49,0,.91.31,1.76,1.26,1.76a4.13,4.13,0,0,0,2.53-1.31Zm-2.59-5a4.27,4.27,0,0,0-1.44,3c2.11-.62,2.77-1.37,2.77-2.26,0-.67-.4-1-.74-1A1,1,0,0,0,300.06,42.1Z" fill="#fff"/>
      <path d="M311.93,47.36a4.77,4.77,0,0,1-2.86,1.89c-.4,0-.71-.26-.43-1.66l.26-1.26h0a11.4,11.4,0,0,1-2.13,2.15,2.89,2.89,0,0,1-1.7.77c-.7,0-1.3-.73-1.3-2.17a5.86,5.86,0,0,1,5.17-5.95,3.31,3.31,0,0,1,1,.14l.5-2.57c.14-.77.06-.86-.75-.87h-.38l.07-.53a25.56,25.56,0,0,0,3-.61c.2,0,.23.14.13.56-.79,3.41-1.44,6.56-2,9.8-.11.49-.09.66.05.66a2.86,2.86,0,0,0,1.15-.8Zm-2.82-2.43.54-2.5a2,2,0,0,0-1.31-.49,1.53,1.53,0,0,0-.91.26c-1.1.81-1.72,3.15-1.72,4.52,0,.75.23,1.12.51,1.12C307,47.84,308.57,46,309.11,44.93Z" fill="#fff"/>
      <path d="M316.7,47.38a5.41,5.41,0,0,1-2.9,1.87c-.46,0-.79-.33-.42-1.83l1-4.12c.1-.42.12-.59,0-.59a3.56,3.56,0,0,0-1.1.65l-.25-.44a6.19,6.19,0,0,1,3-1.8c.48,0,.53.64.28,1.61l-1.07,4.34c-.1.47-.06.64.06.64a3.15,3.15,0,0,0,1.15-.75Zm.3-8.73a1.2,1.2,0,0,1-1.17,1.22.85.85,0,0,1-.9-.94,1.22,1.22,0,0,1,1.19-1.23A.87.87,0,0,1,317,38.65Z" fill="#fff"/>
      <path d="M323.53,47.28a5.26,5.26,0,0,1-3.61,2c-1.29,0-2.06-.92-2.06-2.6a5.78,5.78,0,0,1,1.87-4.22,5.12,5.12,0,0,1,2.94-1.3c.81,0,1.47.42,1.47,1a1.14,1.14,0,0,1-.68,1A.32.32,0,0,1,323,43c-.43-.69-.89-1-1.36-1s-.79.35-1.09.92a7.35,7.35,0,0,0-.7,3.22c0,1.26.44,1.82,1.16,1.82a4,4,0,0,0,2.24-1.19Z" fill="#fff"/>
      <path d="M332.56,47.28a5,5,0,0,1-2.91,2c-.38,0-.71-.24-.42-1.73l.25-1.19h-.05a11.23,11.23,0,0,1-1.91,2.07,3.22,3.22,0,0,1-1.79.85c-.61,0-1.15-.7-1.15-2.08a6.3,6.3,0,0,1,2-4.55,5.91,5.91,0,0,1,3.57-1.49,6.42,6.42,0,0,1,1.11.13,4.47,4.47,0,0,0,.89.1l.09.07c-.34,1.37-.81,3.43-1.18,5.55-.1.56-.07.72,0,.72a3.71,3.71,0,0,0,1.21-.88ZM329.69,45c.23-.81.52-2.19.61-2.75a2.55,2.55,0,0,0-1.05-.23,1.52,1.52,0,0,0-.94.28c-1.14.83-1.75,3-1.75,4.55,0,.72.15,1,.42,1C327.61,47.84,329.3,45.79,329.69,45Z" fill="#fff"/>
      <path d="M337,47.42a5.21,5.21,0,0,1-2.91,1.83c-.42,0-.75-.38-.37-2.22.56-2.73,1.11-5.44,1.67-8.15.19-.88.1-1-.63-1l-.49,0,.08-.49a20.36,20.36,0,0,0,3-.63c.21,0,.23.17.14.61-.67,3.26-1.35,6.51-2,9.8-.13.49-.07.67.05.67a3.46,3.46,0,0,0,1.22-.81Z" fill="#fff"/>
      <path d="M347.7,37.69c2.29,0,3.95.8,3.95,3,0,2.36-2,3.67-4.25,3.85a5.34,5.34,0,0,1-.58,0l-1.22-.33-.53,2.64c-.28,1.44-.12,1.54,1.42,1.68l-.11.54h-5.07l.12-.54c1.3-.12,1.42-.24,1.72-1.68l1.34-6.88c.28-1.45.18-1.57-1.15-1.71l.12-.54Zm-2,5.86a2.68,2.68,0,0,0,1.1.21,3,3,0,0,0,2.71-3.24c0-1.43-.77-2.19-2-2.19a1.72,1.72,0,0,0-.7.14c-.17.11-.28.35-.38.9Z" fill="#fff"/>
      <path d="M355.68,47.42a5.24,5.24,0,0,1-2.91,1.83c-.42,0-.75-.38-.37-2.22.56-2.73,1.1-5.44,1.67-8.15.19-.88.1-1-.63-1l-.5,0,.09-.49a20.71,20.71,0,0,0,3-.63c.21,0,.22.17.14.61-.67,3.26-1.35,6.51-2,9.8-.13.49-.07.67.05.67a3.46,3.46,0,0,0,1.22-.81Z" fill="#fff"/>
      <path d="M364.62,47.28a5,5,0,0,1-2.91,2c-.38,0-.71-.24-.42-1.73l.25-1.19h-.05a11.59,11.59,0,0,1-1.91,2.07,3.25,3.25,0,0,1-1.79.85c-.61,0-1.15-.7-1.15-2.08a6.3,6.3,0,0,1,2-4.55,5.91,5.91,0,0,1,3.57-1.49,6.42,6.42,0,0,1,1.11.13,4.47,4.47,0,0,0,.89.1l.09.07c-.34,1.37-.81,3.43-1.18,5.55-.1.56-.07.72,0,.72a3.71,3.71,0,0,0,1.21-.88ZM361.75,45c.23-.81.52-2.19.61-2.75a2.55,2.55,0,0,0-1.05-.23,1.52,1.52,0,0,0-.94.28c-1.14.83-1.76,3-1.76,4.55,0,.72.16,1,.42,1C359.67,47.84,361.36,45.79,361.75,45Z" fill="#fff"/>
      <path d="M373.67,47.45c-1.21,1.28-2.24,1.8-2.81,1.8s-.76-.4-.42-1.85c.3-1.24.58-2.49.86-3.73.23-.93.13-1.12-.1-1.14-.63,0-2.38,1.95-3.08,3.17-.23.91-.51,2.08-.72,3.19a10.76,10.76,0,0,0-1.73.35l-.13-.14c.46-1.82.93-3.78,1.35-5.78.13-.54.11-.68,0-.68a3.46,3.46,0,0,0-1.12.73l-.22-.49a5.13,5.13,0,0,1,2.78-1.75c.46,0,.63.56.28,2.12l-.26,1.1h0a11.63,11.63,0,0,1,2.79-2.73,2.63,2.63,0,0,1,1.34-.49c.53,0,1.07.32.53,2.63l-.77,3.32c-.11.44-.07.62.05.62a2.81,2.81,0,0,0,1.1-.74Z" fill="#fff"/>
    </g>
    <path d="M339.21,16.61a2.66,2.66,0,0,0,1.31.35c.62,0,1-.3,1-.74s-.27-.65-.95-.89c-.89-.32-1.46-.8-1.46-1.57s.73-1.55,1.91-1.55a2.89,2.89,0,0,1,1.29.27l-.24.79A2.34,2.34,0,0,0,341,13c-.63,0-.89.32-.89.64s.31.61,1,.89c.93.35,1.38.82,1.38,1.6s-.65,1.62-2,1.62a3.17,3.17,0,0,1-1.46-.34Z" fill="#fff"/>
    <path d="M347.93,15.49c0-.7-.07-1.54-.06-2.27h0c-.17.66-.4,1.39-.64,2.07l-.79,2.33h-.75l-.72-2.3c-.21-.69-.4-1.43-.54-2.1h0c0,.71-.05,1.56-.09,2.3l-.12,2.17h-.92l.36-5.39h1.29l.71,2.16c.19.63.36,1.27.49,1.87h0c.14-.58.32-1.24.53-1.87l.74-2.16h1.28l.32,5.39h-1Z" fill="#fff"/>
  </g>
</svg>
