<svg xmlns="http://www.w3.org/2000/svg" width="267.85" height="7.188" viewBox="0 0 267.85 7.188">
  <metadata><?xpacket begin="﻿" id="W5M0MpCehiHzreSzNTczkc9d"?>
<x:xmpmeta xmlns:x="adobe:ns:meta/" x:xmptk="Adobe XMP Core 5.6-c138 79.159824, 2016/09/14-01:09:01        ">
   <rdf:RDF xmlns:rdf="http://www.w3.org/1999/02/22-rdf-syntax-ns#">
      <rdf:Description rdf:about=""/>
   </rdf:RDF>
</x:xmpmeta>
                                                                                                    
                                                                                                    
                                                                                                    
                                                                                                    
                                                                                                    
                                                                                                    
                                                                                                    
                                                                                                    
                                                                                                    
                                                                                                    
                                                                                                    
                                                                                                    
                                                                                                    
                                                                                                    
                                                                                                    
                                                                                                    
                                                                                                    
                                                                                                    
                                                                                                    
                                                                                                    
                           
<?xpacket end="w"?></metadata>
<defs>
    <style>
      .cls-1 {
        fill-rule: evenodd;
      }
    </style>
  </defs>
  <path id="Legal" class="cls-1" d="M2178.84,507.3h2.48l0.23-1.215h-1.37v-1.422h1.08v-1.125h-1.08v-1.566h1.42l-0.22-1.215h-2.54V507.3Zm3.57,0h1.21v-2.727l0.7,2.727h1.34v-6.543h-1.34v2.637l-0.67-2.637h-1.24V507.3Zm4.21-.828a0.849,0.849,0,0,0,.22.607,0.862,0.862,0,0,0,.63.221h1.6a0.8,0.8,0,0,0,.64-0.243,0.929,0.929,0,0,0,.21-0.63v-5.67h-2.51l-0.22,1.215h1.41v4.023a0.111,0.111,0,0,1-.11.135h-0.48a0.109,0.109,0,0,1-.12-0.126v-2.466h-1.27v2.934Zm6.23-4.572a0.109,0.109,0,0,1,.12.126v4a0.146,0.146,0,0,1-.03.1,0.1,0.1,0,0,1-.1.032h-0.49a0.14,0.14,0,0,1-.11-0.032,0.241,0.241,0,0,1-.02-0.1v-4a0.109,0.109,0,0,1,.12-0.126h0.51Zm1.44-.3a0.879,0.879,0,0,0-.21-0.617,0.854,0.854,0,0,0-.66-0.229h-1.64a0.863,0.863,0,0,0-.67.229,0.875,0.875,0,0,0-.2.617v4.77a1.356,1.356,0,0,0,.04.355,0.562,0.562,0,0,0,.15.293,0.718,0.718,0,0,0,.28.2,1.154,1.154,0,0,0,.45.077h1.53a1.154,1.154,0,0,0,.45-0.077,0.7,0.7,0,0,0,.44-0.5,1.356,1.356,0,0,0,.04-0.355V501.6Zm3.39,4.041,1.25-4.887h-1.35l-0.59,3.1-0.58-3.1h-1.35l1.25,4.887V507.3h1.37v-1.656Zm5.52,1.656a0.77,0.77,0,0,0,.87-0.873v-2.268a0.674,0.674,0,0,0-.16-0.518,0.7,0.7,0,0,0-.48-0.148h-0.82a0.243,0.243,0,0,1-.15-0.036,0.14,0.14,0,0,1-.05-0.135v-1.206a0.134,0.134,0,0,1,.16-0.144h1.48l-0.23-1.215h-1.81a0.839,0.839,0,0,0-.66.229,0.879,0.879,0,0,0-.21.617v2.232a1.026,1.026,0,0,0,.06.387,0.529,0.529,0,0,0,.16.225,0.541,0.541,0,0,0,.23.1,1.671,1.671,0,0,0,.28.023h0.67a0.45,0.45,0,0,1,.19.027,0.163,0.163,0,0,1,.06.162v1.188a0.13,0.13,0,0,1-.16.135h-1.4l0.23,1.215h1.74Zm3.81-5.4a0.106,0.106,0,0,1,.11.126v4a0.149,0.149,0,0,1-.02.1,0.115,0.115,0,0,1-.1.032h-0.5a0.115,0.115,0,0,1-.1-0.032,0.149,0.149,0,0,1-.02-0.1v-4a0.106,0.106,0,0,1,.11-0.126h0.52Zm1.44-.3a0.879,0.879,0,0,0-.21-0.617,0.863,0.863,0,0,0-.67-0.229h-1.63a0.863,0.863,0,0,0-.67.229,0.879,0.879,0,0,0-.21.617v4.77a1.976,1.976,0,0,0,.04.355,0.7,0.7,0,0,0,.44.5,1.154,1.154,0,0,0,.45.077h1.53a1.154,1.154,0,0,0,.45-0.077,0.7,0.7,0,0,0,.44-0.5,1.976,1.976,0,0,0,.04-0.355V501.6Zm0.99,5.7h2.43l0.22-1.215h-1.31v-5.328h-1.34V507.3Zm6.94-5.4a0.113,0.113,0,0,1,.12.135v2a0.113,0.113,0,0,1-.12.135h-0.64V501.9h0.64Zm1.41-.27a0.77,0.77,0,0,0-.87-0.873h-2.49V507.3h1.31V505.22h0.17l0.63,2.079h1.35l-0.69-2.079a0.531,0.531,0,0,0,.44-0.18,0.6,0.6,0,0,0,.15-0.4v-3.015Zm1.01,5.67h2.48l0.23-1.215h-1.37v-1.422h1.08v-1.125h-1.08v-1.566h1.42l-0.23-1.215h-2.53V507.3Zm5.63,0a0.77,0.77,0,0,0,.87-0.873v-2.268a0.674,0.674,0,0,0-.16-0.518,0.7,0.7,0,0,0-.48-0.148h-0.82a0.243,0.243,0,0,1-.15-0.036,0.166,0.166,0,0,1-.05-0.135v-1.206a0.134,0.134,0,0,1,.16-0.144h1.48l-0.23-1.215h-1.81a0.839,0.839,0,0,0-.66.229,0.879,0.879,0,0,0-.21.617v2.232a1.026,1.026,0,0,0,.06.387,0.529,0.529,0,0,0,.16.225,0.541,0.541,0,0,0,.23.1,1.671,1.671,0,0,0,.28.023h0.67a0.45,0.45,0,0,1,.19.027,0.163,0.163,0,0,1,.06.162v1.188a0.13,0.13,0,0,1-.16.135h-1.4l0.23,1.215h1.74Zm3.82-5.4a0.106,0.106,0,0,1,.11.126v2.322a0.149,0.149,0,0,1-.02.1,0.115,0.115,0,0,1-.1.032h-0.65V501.9h0.66Zm1.38-.306a0.861,0.861,0,0,0-.21-0.612,0.874,0.874,0,0,0-.67-0.225h-2.46V507.3h1.3v-1.737h1.16a0.864,0.864,0,0,0,.67-0.23,0.877,0.877,0,0,0,.21-0.616v-3.123Zm2.91,0.306a0.109,0.109,0,0,1,.12.126v4a0.146,0.146,0,0,1-.03.1,0.115,0.115,0,0,1-.1.032h-0.49a0.14,0.14,0,0,1-.11-0.032,0.241,0.241,0,0,1-.02-0.1v-4a0.109,0.109,0,0,1,.12-0.126h0.51Zm1.44-.3a0.879,0.879,0,0,0-.21-0.617,0.854,0.854,0,0,0-.66-0.229h-1.64a0.863,0.863,0,0,0-.67.229,0.875,0.875,0,0,0-.2.617v4.77a1.356,1.356,0,0,0,.04.355,0.63,0.63,0,0,0,.14.293,0.842,0.842,0,0,0,.29.2,1.154,1.154,0,0,0,.45.077h1.53a1.154,1.154,0,0,0,.45-0.077,0.7,0.7,0,0,0,.44-0.5,1.356,1.356,0,0,0,.04-0.355V501.6Zm0.99,5.7h1.21v-2.727l0.7,2.727h1.34v-6.543h-1.34v2.637l-0.67-2.637h-1.24V507.3Zm6.3,0a0.77,0.77,0,0,0,.87-0.873v-2.268a0.674,0.674,0,0,0-.16-0.518,0.741,0.741,0,0,0-.49-0.148h-0.81a0.243,0.243,0,0,1-.15-0.036,0.14,0.14,0,0,1-.05-0.135v-1.206a0.134,0.134,0,0,1,.16-0.144h1.48l-0.23-1.215h-1.81a0.839,0.839,0,0,0-.66.229,0.879,0.879,0,0,0-.21.617v2.232a1.026,1.026,0,0,0,.06.387,0.529,0.529,0,0,0,.16.225,0.541,0.541,0,0,0,.23.1,1.671,1.671,0,0,0,.28.023h0.67a0.45,0.45,0,0,1,.19.027,0.163,0.163,0,0,1,.06.162v1.188a0.134,0.134,0,0,1-.16.135h-1.4l0.23,1.215h1.74Zm1.86,0h1.31v-6.543h-1.31V507.3Zm4.25-5.4a0.109,0.109,0,0,1,.12.126v1.431a0.168,0.168,0,0,1-.05.13,0.165,0.165,0,0,1-.11.041h-0.62V501.9h0.66Zm0.14,4.122a0.146,0.146,0,0,1-.03.1,0.155,0.155,0,0,1-.11.032h-0.66v-1.539h0.6a0.211,0.211,0,0,1,.14.04,0.167,0.167,0,0,1,.06.149v1.215Zm1.23-4.392a0.77,0.77,0,0,0-.87-0.873h-2.45V507.3h2.36a0.847,0.847,0,0,0,1.02-1.008V504.6a0.658,0.658,0,0,0-.12-0.387,0.485,0.485,0,0,0-.39-0.189,0.53,0.53,0,0,0,.35-0.248,0.8,0.8,0,0,0,.1-0.418v-1.728Zm1.05,5.67h1.31v-6.543h-1.31V507.3Zm2.3,0h2.43l0.22-1.215h-1.31v-5.328h-1.34V507.3Zm5.17-1.656,1.25-4.887h-1.35l-0.59,3.1-0.59-3.1h-1.35l1.25,4.887V507.3h1.38v-1.656Zm5.59-4.64a3.459,3.459,0,0,0-1.06.684,3.2,3.2,0,0,0-.98,2.354,3.241,3.241,0,0,0,2.04,3.064,3.326,3.326,0,0,0,3.58-.688,3.4,3.4,0,0,0,.72-3.69,3.266,3.266,0,0,0-1.77-1.724A3.363,3.363,0,0,0,2262.86,501Zm2.3,0.518a2.524,2.524,0,0,1,1.39,1.435,2.772,2.772,0,0,1,.21,1.085,2.826,2.826,0,0,1-.21,1.1,2.521,2.521,0,0,1-1.39,1.44,2.6,2.6,0,0,1-1.03.207,2.694,2.694,0,0,1-1.05-.207,2.521,2.521,0,0,1-1.39-1.44,2.826,2.826,0,0,1-.21-1.1,2.772,2.772,0,0,1,.21-1.085,2.524,2.524,0,0,1,1.39-1.435,2.694,2.694,0,0,1,1.05-.207A2.6,2.6,0,0,1,2265.16,501.521Zm0.09,3.141a0.911,0.911,0,0,1-.32.607,1.066,1.066,0,0,1-.69.23,1.109,1.109,0,0,1-.53-0.122,1.217,1.217,0,0,1-.4-0.324,1.48,1.48,0,0,1-.25-0.468,1.737,1.737,0,0,1-.09-0.562,1.7,1.7,0,0,1,.08-0.558,1.2,1.2,0,0,1,.24-0.455,1.045,1.045,0,0,1,.39-0.306,1.2,1.2,0,0,1,.54-0.112,1.046,1.046,0,0,1,.68.22,0.9,0.9,0,0,1,.35.581h0.59a1.528,1.528,0,0,0-.19-0.585,1.655,1.655,0,0,0-.36-0.428,1.46,1.46,0,0,0-.5-0.265,1.853,1.853,0,0,0-.58-0.09,2.037,2.037,0,0,0-.8.153,1.878,1.878,0,0,0-.6.418,1.928,1.928,0,0,0-.38.635,2.576,2.576,0,0,0-.13.8,2.351,2.351,0,0,0,.14.805,1.815,1.815,0,0,0,1,1.071,1.953,1.953,0,0,0,.8.158,1.628,1.628,0,0,0,.56-0.1,1.551,1.551,0,0,0,.48-0.279,1.67,1.67,0,0,0,.36-0.441,1.835,1.835,0,0,0,.21-0.585h-0.6Zm6.16-3.033a0.77,0.77,0,0,0-.87-0.873h-1.88l-0.22,1.215h1.59a0.108,0.108,0,0,1,.13.117v0.873c0,0.03-.01.054-0.01,0.072a0.333,0.333,0,0,1-.08.072l-1.23.945a0.785,0.785,0,0,0-.34.369,1.383,1.383,0,0,0-.09.531V507.3h2.65l0.23-1.215h-1.57v-1.017a0.179,0.179,0,0,1,.06-0.153l1.23-.981a0.943,0.943,0,0,0,.31-0.3,0.744,0.744,0,0,0,.09-0.4v-1.611Zm2.92,0.27a0.106,0.106,0,0,1,.11.126v4a0.149,0.149,0,0,1-.02.1,0.115,0.115,0,0,1-.1.032h-0.48a0.115,0.115,0,0,1-.1-0.032,0.146,0.146,0,0,1-.03-0.1v-4a0.109,0.109,0,0,1,.12-0.126h0.5Zm-1.93,4.5a0.936,0.936,0,0,0,.22.643,0.8,0.8,0,0,0,.66.257h1.6a0.826,0.826,0,0,0,.67-0.257,0.987,0.987,0,0,0,.22-0.643v-4.743a0.99,0.99,0,0,0-.22-0.644,0.825,0.825,0,0,0-.67-0.256h-1.6a0.8,0.8,0,0,0-.66.256,0.938,0.938,0,0,0-.22.644V506.4Zm4.24-4.428h0.54v4.113h-0.42V507.3h2.2v-1.215h-0.44v-5.328h-1.4Zm5.2-.072a0.165,0.165,0,0,1,.13.036,0.28,0.28,0,0,1,.02.108v1.224a0.15,0.15,0,0,1-.04.13,0.213,0.213,0,0,1-.14.032h-0.41a0.232,0.232,0,0,1-.14-0.032,0.151,0.151,0,0,1-.05-0.13v-1.224a0.13,0.13,0,0,1,.15-0.144h0.48Zm-0.45,4.266a0.273,0.273,0,0,1-.13-0.027,0.176,0.176,0,0,1-.05-0.153v-1.413a0.145,0.145,0,0,1,.17-0.153h0.44a0.194,0.194,0,0,1,.14.04,0.187,0.187,0,0,1,.03.113v1.413a0.152,0.152,0,0,1-.05.153,0.247,0.247,0,0,1-.13.027h-0.42Zm1.9-4.41a1,1,0,0,0-.26-0.77,1.2,1.2,0,0,0-.82-0.229h-1.19a1.2,1.2,0,0,0-.82.229,1,1,0,0,0-.26.77v1.359a1.19,1.19,0,0,0,.09.454,0.554,0.554,0,0,0,.35.311,0.536,0.536,0,0,0-.23.1,0.69,0.69,0,0,0-.17.175,0.877,0.877,0,0,0-.1.225,0.678,0.678,0,0,0-.04.239v1.656a1.082,1.082,0,0,0,.24.783,1.111,1.111,0,0,0,.81.243h1.43a0.88,0.88,0,0,0,1.04-1.026v-1.656a0.941,0.941,0,0,0-.12-0.455,0.545,0.545,0,0,0-.39-0.283,0.7,0.7,0,0,0,.36-0.32,1.222,1.222,0,0,0,.08-0.445v-1.359Zm2.64,5.544h1.3v-6.543h-1.3V507.3Zm4.41-.468,0.82-2.61V507.3h1.3v-6.543h-1.41l-0.71,2.772-0.71-2.772h-1.41V507.3h1.3v-3.078Zm5.06-4.932a0.109,0.109,0,0,1,.12.126v2.322a0.241,0.241,0,0,1-.02.1,0.14,0.14,0,0,1-.11.032h-0.64V501.9h0.65Zm1.39-.306a0.861,0.861,0,0,0-.21-0.612,0.889,0.889,0,0,0-.67-0.225h-2.46V507.3h1.3v-1.737h1.16a0.772,0.772,0,0,0,.88-0.846v-3.123Zm2.91,0.306a0.106,0.106,0,0,1,.11.126v4a0.149,0.149,0,0,1-.02.1,0.115,0.115,0,0,1-.1.032h-0.5a0.115,0.115,0,0,1-.1-0.032,0.149,0.149,0,0,1-.02-0.1v-4a0.106,0.106,0,0,1,.11-0.126h0.52Zm1.44-.3a0.879,0.879,0,0,0-.21-0.617,0.863,0.863,0,0,0-.67-0.229h-1.63a0.863,0.863,0,0,0-.67.229,0.879,0.879,0,0,0-.21.617v4.77a1.976,1.976,0,0,0,.04.355,0.7,0.7,0,0,0,.44.5,1.154,1.154,0,0,0,.45.077h1.53a1.154,1.154,0,0,0,.45-0.077,0.7,0.7,0,0,0,.44-0.5,1.976,1.976,0,0,0,.04-0.355V501.6Zm2.93,0.3a0.12,0.12,0,0,1,.13.135v2a0.12,0.12,0,0,1-.13.135h-0.64V501.9h0.64Zm1.41-.27a0.77,0.77,0,0,0-.87-0.873h-2.48V507.3h1.3V505.22h0.17l0.63,2.079h1.35l-0.68-2.079a0.511,0.511,0,0,0,.43-0.18,0.6,0.6,0,0,0,.15-0.4v-3.015Zm1.16-.873-0.35,1.215h0.88V507.3h1.33v-5.328h0.87l-0.32-1.215h-2.41Zm3.54,6.543h2.49l0.22-1.215h-1.37v-1.422h1.08v-1.125h-1.08v-1.566h1.42l-0.22-1.215h-2.54V507.3Zm5.49-5.4a0.109,0.109,0,0,1,.12.126v4a0.241,0.241,0,0,1-.02.1,0.14,0.14,0,0,1-.11.032h-0.61V501.9h0.62Zm0.54,5.4a0.77,0.77,0,0,0,.87-0.873v-4.8a0.77,0.77,0,0,0-.87-0.873h-2.46V507.3h2.46Zm5.39-5.4a0.109,0.109,0,0,1,.12.126v1.431a0.168,0.168,0,0,1-.05.13,0.165,0.165,0,0,1-.11.041h-0.62V501.9h0.66Zm0.14,4.122a0.146,0.146,0,0,1-.03.1,0.14,0.14,0,0,1-.11.032h-0.66v-1.539h0.6a0.211,0.211,0,0,1,.14.04,0.167,0.167,0,0,1,.06.149v1.215Zm1.23-4.392a0.77,0.77,0,0,0-.87-0.873h-2.45V507.3h2.37a1.084,1.084,0,0,0,.79-0.234,1.1,1.1,0,0,0,.22-0.774V504.6a0.658,0.658,0,0,0-.12-0.387,0.485,0.485,0,0,0-.39-0.189,0.579,0.579,0,0,0,.36-0.248,0.9,0.9,0,0,0,.09-0.418v-1.728Zm3.5,4.014,1.25-4.887h-1.35l-0.59,3.1-0.59-3.1h-1.35l1.25,4.887V507.3h1.38v-1.656Zm6.02,1.656,0.24-1.215h-1.26a0.106,0.106,0,0,1-.11-0.126V502.1a0.106,0.106,0,0,1,.11-0.126h1.26l-0.23-1.215h-1.69a0.8,0.8,0,0,0-.56.207,0.736,0.736,0,0,0-.23.594v4.752a0.831,0.831,0,0,0,1,.99h1.47Zm1.14,0h2.48l0.22-1.215h-1.36v-1.422h1.08v-1.125h-1.08v-1.566h1.42l-0.23-1.215h-2.53V507.3Zm5.51-5.4a0.116,0.116,0,0,1,.13.135v2a0.116,0.116,0,0,1-.13.135h-0.64V501.9h0.64Zm1.42-.27a0.777,0.777,0,0,0-.88-0.873h-2.48V507.3h1.3V505.22h0.17l0.63,2.079h1.35l-0.68-2.079a0.545,0.545,0,0,0,.44-0.18,0.6,0.6,0,0,0,.15-0.4v-3.015Zm2.69,3.357-0.56-4.23h-1.32l1.2,6.543h1.36l1.21-6.543h-1.33Zm2.7,2.313h2.48l0.23-1.215h-1.37v-1.422h1.08v-1.125h-1.08v-1.566h1.42l-0.23-1.215h-2.53V507.3Zm5.63,0a0.77,0.77,0,0,0,.87-0.873v-2.268a0.674,0.674,0,0,0-.16-0.518,0.7,0.7,0,0,0-.48-0.148h-0.82a0.243,0.243,0,0,1-.15-0.036,0.14,0.14,0,0,1-.05-0.135v-1.206a0.134,0.134,0,0,1,.16-0.144h1.48l-0.23-1.215h-1.81a0.839,0.839,0,0,0-.66.229,0.879,0.879,0,0,0-.21.617v2.232a1.026,1.026,0,0,0,.06.387,0.529,0.529,0,0,0,.16.225,0.541,0.541,0,0,0,.23.1,1.671,1.671,0,0,0,.28.023h0.67a0.45,0.45,0,0,1,.19.027,0.163,0.163,0,0,1,.06.162v1.188a0.13,0.13,0,0,1-.16.135h-1.4l0.23,1.215h1.74Zm3.94-.81,0.12,0.81h1.31l-1.18-6.543h-1.39l-1.18,6.543h1.31l0.12-.81h0.89Zm-0.44-3.366,0.3,2.331h-0.6Zm6.14,4.176a0.77,0.77,0,0,0,.87-0.873v-2.268a0.674,0.674,0,0,0-.16-0.518,0.741,0.741,0,0,0-.49-0.148h-0.81a0.243,0.243,0,0,1-.15-0.036,0.14,0.14,0,0,1-.05-0.135v-1.206a0.134,0.134,0,0,1,.16-0.144h1.48l-0.23-1.215h-1.81a0.839,0.839,0,0,0-.66.229,0.879,0.879,0,0,0-.21.617v2.232a1.026,1.026,0,0,0,.06.387,0.529,0.529,0,0,0,.16.225,0.541,0.541,0,0,0,.23.1,1.671,1.671,0,0,0,.28.023h0.67a0.45,0.45,0,0,1,.19.027,0.163,0.163,0,0,1,.06.162v1.188a0.134,0.134,0,0,1-.16.135h-1.4l0.23,1.215h1.74Zm3.81-5.4a0.106,0.106,0,0,1,.11.126v4a0.149,0.149,0,0,1-.02.1,0.115,0.115,0,0,1-.1.032h-0.5a0.115,0.115,0,0,1-.1-0.032,0.149,0.149,0,0,1-.02-0.1v-4a0.106,0.106,0,0,1,.11-0.126h0.52Zm1.44-.3a0.879,0.879,0,0,0-.21-0.617,0.863,0.863,0,0,0-.67-0.229h-1.63a0.863,0.863,0,0,0-.67.229,0.879,0.879,0,0,0-.21.617v4.77a1.976,1.976,0,0,0,.04.355,0.7,0.7,0,0,0,.44.5,1.154,1.154,0,0,0,.45.077h1.53a1.154,1.154,0,0,0,.45-0.077,0.7,0.7,0,0,0,.44-0.5,1.976,1.976,0,0,0,.04-0.355V501.6Zm0.99,5.7h2.43l0.22-1.215h-1.31v-5.328h-1.34V507.3Zm4.99,0h1.31v-6.543h-1.31V507.3Zm4.41-.468,0.83-2.61V507.3h1.3v-6.543h-1.42l-0.71,2.772-0.71-2.772h-1.4V507.3h1.29v-3.078Zm5.07-4.932a0.109,0.109,0,0,1,.12.126v2.322a0.146,0.146,0,0,1-.03.1,0.115,0.115,0,0,1-.1.032h-0.65V501.9h0.66Zm1.38-.306a0.861,0.861,0,0,0-.21-0.612,0.874,0.874,0,0,0-.67-0.225h-2.45V507.3h1.29v-1.737h1.16a0.864,0.864,0,0,0,.67-0.23,0.877,0.877,0,0,0,.21-0.616v-3.123Zm2.91,0.306a0.109,0.109,0,0,1,.12.126v4a0.241,0.241,0,0,1-.02.1,0.14,0.14,0,0,1-.11.032h-0.49a0.14,0.14,0,0,1-.11-0.032,0.241,0.241,0,0,1-.02-0.1v-4a0.109,0.109,0,0,1,.12-0.126h0.51Zm1.44-.3a0.879,0.879,0,0,0-.21-0.617,0.839,0.839,0,0,0-.66-0.229h-1.64a0.863,0.863,0,0,0-.67.229,0.924,0.924,0,0,0-.2.617v4.77a1.356,1.356,0,0,0,.04.355,0.562,0.562,0,0,0,.15.293,0.718,0.718,0,0,0,.28.2,1.154,1.154,0,0,0,.45.077h1.53a1.154,1.154,0,0,0,.45-0.077,0.7,0.7,0,0,0,.44-0.5,1.356,1.356,0,0,0,.04-0.355V501.6Zm2.93,0.3a0.116,0.116,0,0,1,.13.135v2a0.116,0.116,0,0,1-.13.135h-0.63V501.9h0.63Zm1.42-.27a0.773,0.773,0,0,0-.88-0.873h-2.48V507.3h1.31V505.22h0.17l0.63,2.079h1.35l-0.69-2.079a0.545,0.545,0,0,0,.44-0.18,0.6,0.6,0,0,0,.15-0.4v-3.015Zm1.15-.873-0.34,1.215h0.87V507.3h1.33v-5.328h0.88l-0.33-1.215h-2.41Zm5.59,6.543a0.77,0.77,0,0,0,.87-0.873v-2.268a0.674,0.674,0,0,0-.16-0.518,0.741,0.741,0,0,0-.49-0.148h-0.82a0.229,0.229,0,0,1-.14-0.036,0.14,0.14,0,0,1-.05-0.135v-1.206a0.134,0.134,0,0,1,.16-0.144h1.47l-0.22-1.215h-1.81a0.863,0.863,0,0,0-.67.229,0.924,0.924,0,0,0-.2.617v2.232a1.026,1.026,0,0,0,.06.387,0.529,0.529,0,0,0,.16.225,0.541,0.541,0,0,0,.23.1,1.671,1.671,0,0,0,.28.023h0.67a0.482,0.482,0,0,1,.19.027,0.163,0.163,0,0,1,.05.162v1.188a0.126,0.126,0,0,1-.15.135h-1.4l0.23,1.215h1.74Zm1.98-.176a0.558,0.558,0,0,0,.41.239,1.649,1.649,0,0,1-.12.3q-0.09.144-.18,0.279h0.46a2.236,2.236,0,0,0,.24-0.257,3.349,3.349,0,0,0,.23-0.315,1.6,1.6,0,0,0,.16-0.342,0.825,0.825,0,0,0,.07-0.328,0.705,0.705,0,0,0-1.41,0A0.763,0.763,0,0,0,2400.73,507.123Zm3.83,0.176h1.34v-2.637h1.08v-1.125h-1.08v-1.566h1.43l-0.23-1.215h-2.54V507.3Zm3.83-6.543-0.34,1.215h0.87V507.3h1.33v-5.328h0.87l-0.32-1.215h-2.41Zm3.12,6.43a0.7,0.7,0,0,0,.99,0,0.655,0.655,0,0,0,.21-0.49,0.705,0.705,0,0,0-1.41,0A0.655,0.655,0,0,0,2411.51,507.186Zm7.24-2.614-0.53-3.816h-0.94l-0.53,3.816-0.42-3.816H2415l1.03,6.543h1.19l0.53-3.4,0.54,3.4h1.19l1.02-6.543h-1.33Zm4.51-2.673a0.106,0.106,0,0,1,.11.126v4a0.241,0.241,0,0,1-.02.1,0.129,0.129,0,0,1-.1.032h-0.5a0.115,0.115,0,0,1-.1-0.032,0.149,0.149,0,0,1-.02-0.1v-4a0.1,0.1,0,0,1,.11-0.126h0.52Zm1.44-.3a0.879,0.879,0,0,0-.21-0.617,0.863,0.863,0,0,0-.67-0.229h-1.64a0.854,0.854,0,0,0-.66.229,0.879,0.879,0,0,0-.21.617v4.77a1.976,1.976,0,0,0,.04.355,0.7,0.7,0,0,0,.44.5,1.154,1.154,0,0,0,.45.077h1.53a1.154,1.154,0,0,0,.45-0.077,0.842,0.842,0,0,0,.29-0.2,0.763,0.763,0,0,0,.15-0.293,1.976,1.976,0,0,0,.04-0.355V501.6Zm2.93,0.3a0.12,0.12,0,0,1,.13.135v2a0.12,0.12,0,0,1-.13.135h-0.64V501.9h0.64Zm1.41-.27a0.77,0.77,0,0,0-.87-0.873h-2.48V507.3h1.3V505.22h0.17l0.63,2.079h1.35l-0.68-2.079a0.524,0.524,0,0,0,.43-0.18,0.6,0.6,0,0,0,.15-0.4v-3.015Zm1.15-.873-0.34,1.215h0.88V507.3h1.33v-5.328h0.87l-0.32-1.215h-2.42Zm6.93,0h-1.34v2.808h-0.71v-2.808h-1.33V507.3h1.33v-2.61h0.71v2.61h1.34v-6.543Zm2.63,0-0.34,1.215h0.87V507.3h1.34v-5.328h0.87l-0.33-1.215h-2.41Zm6.91,0h-1.29l-0.51,2.313-0.48-2.313h-1.3l0.89,3.141-0.92,3.4h1.32l0.49-2.295,0.51,2.295h1.32l-0.93-3.4Z" transform="translate(-2178.84 -500.75)"/>
</svg>
